<svg version="1.1" id="Layer_1" xmlns="http://www.w3.org/2000/svg" xmlns:xlink="http://www.w3.org/1999/xlink" x="0px" y="0px"
	 width="100%" viewBox="0 0 645 523" enable-background="new 0 0 645 523" xml:space="preserve">
<path fill="#FFFFFF" opacity="1.000000" stroke="none" 
	d="
M373.000000,524.000000 
	C248.666672,524.000000 124.833336,524.000000 1.000000,524.000000 
	C1.000000,349.666656 1.000000,175.333328 1.000000,1.000000 
	C216.000000,1.000000 431.000000,1.000000 646.000000,1.000000 
	C646.000000,175.333328 646.000000,349.666656 646.000000,524.000000 
	C555.166687,524.000000 464.333344,524.000000 373.000000,524.000000 
M105.122177,201.986008 
	C105.122177,201.986008 105.224373,201.907639 105.658180,202.496475 
	C107.111092,202.902069 108.563995,203.307663 110.857323,203.884369 
	C117.898788,204.149963 124.940254,204.415558 132.807144,204.878876 
	C137.526840,203.721832 143.497467,203.971466 146.707565,201.116867 
	C153.529144,195.050659 162.222321,190.665817 166.346313,181.770493 
	C168.690582,176.713959 173.146698,171.908875 173.472229,166.788437 
	C174.264648,154.323700 175.834671,141.385162 167.106644,130.238861 
	C160.284103,121.525940 155.108551,111.320335 142.189285,109.900085 
	C135.709381,109.187729 129.400940,106.408081 122.946167,106.123466 
	C116.977135,105.860291 110.619133,106.819801 104.964073,108.776970 
	C95.992867,111.881836 87.432053,116.030472 83.020920,125.629036 
	C80.482315,131.153015 75.353577,135.962662 74.367821,141.613190 
	C72.873207,150.180649 73.961937,159.200256 73.984459,168.027710 
	C73.986053,168.651901 74.121185,169.338608 74.403038,169.889374 
	C76.813751,174.600189 79.322426,179.261230 81.705963,183.985519 
	C85.593506,191.690765 91.350449,197.043854 100.615265,199.014893 
	C101.100197,199.340988 101.585121,199.667099 101.901711,200.762802 
	C102.952057,201.134384 104.002396,201.505966 105.122177,201.986008 
M232.964539,482.787170 
	C236.002777,481.671448 239.041016,480.555756 241.805450,479.540558 
	C241.805450,476.918915 241.805450,474.958588 242.240540,472.369049 
	C244.101639,468.108795 246.099487,463.902069 247.792023,459.575867 
	C250.387039,452.942841 252.855072,446.256592 255.203781,439.532410 
	C256.105957,436.949585 256.466522,434.182556 257.194733,431.532623 
	C257.948456,428.789856 258.106323,425.411163 259.839661,423.508209 
	C263.429108,419.567413 265.139191,414.874786 266.940002,410.160309 
	C269.005371,404.753235 270.721497,399.213837 272.700073,393.772217 
	C273.907166,390.452362 275.448486,387.252563 276.620148,383.921661 
	C279.522125,375.671692 282.297913,367.377380 285.729828,358.716431 
	C287.505280,355.271881 289.206604,351.785980 291.094635,348.404297 
	C291.796722,347.146820 292.936096,346.133514 294.236786,345.737885 
	C296.591980,352.420166 298.881897,359.126343 301.320831,365.777924 
	C303.725220,372.335358 306.142609,378.894592 308.813446,385.345764 
	C310.940277,390.482941 313.870544,395.313385 315.706696,400.539093 
	C318.645203,408.902100 320.599243,417.617035 323.654144,425.931610 
	C327.399872,436.126556 331.878754,446.050995 335.982941,456.115936 
	C337.739716,460.424255 339.350708,464.792053 341.065277,469.845703 
	C342.378937,471.893402 344.606110,473.850891 344.819122,476.007324 
	C345.285736,480.731537 348.613892,481.562469 352.818726,482.882965 
	C355.520355,482.658325 358.221954,482.433685 361.829254,482.222961 
	C374.233063,482.355469 386.636871,482.487946 399.945831,482.791290 
	C403.976654,482.724518 408.007507,482.657776 412.931732,482.773071 
	C416.296844,482.705322 419.661926,482.637573 423.934174,482.768005 
	C428.630585,482.701904 433.326965,482.635803 438.932770,482.758575 
	C443.631226,482.682617 448.329651,482.606689 453.935303,482.731750 
	C457.911224,482.762390 461.960693,483.262299 465.836639,482.654968 
	C468.329620,482.264343 471.645172,480.827026 472.713867,478.845734 
	C475.688141,473.331726 477.647308,467.274445 480.071991,461.458649 
	C483.047211,454.322266 486.207703,447.260681 489.057220,440.075165 
	C490.887054,435.460907 492.300659,430.681610 494.660431,425.702209 
	C496.721069,419.733673 498.622681,413.703949 500.888123,407.814209 
	C503.055664,402.179077 505.680450,396.721649 507.961395,391.127838 
	C510.949982,383.798492 513.696472,376.369659 516.732300,369.060547 
	C520.749634,359.388306 525.034302,349.826874 529.031860,340.146698 
	C531.314880,334.618286 533.185669,328.921173 535.366272,323.348602 
	C538.891113,314.340820 542.513428,305.371124 546.104431,296.389252 
	C547.621399,292.595062 548.526062,288.344360 550.866028,285.148193 
	C553.401062,281.685638 555.303223,278.446991 555.263855,273.384979 
	C556.839783,268.071686 555.834229,265.193787 552.071228,265.200073 
	C527.321716,265.241394 502.572418,265.416351 477.016907,265.367706 
	C467.238678,265.294800 457.457794,265.335907 447.683289,265.104980 
	C442.087860,264.972839 436.519165,264.396057 436.015778,272.335815 
	C435.979218,272.912506 435.396973,273.454651 434.920898,274.816650 
	C433.967255,277.865051 433.013611,280.913422 431.258942,283.935760 
	C430.517426,285.397552 429.593750,286.796814 429.066345,288.332153 
	C426.911560,294.605225 424.877808,300.919861 422.291412,307.648987 
	C421.696808,308.204620 420.806793,308.650940 420.554443,309.333191 
	C418.579163,314.673004 416.807312,320.089233 414.766663,325.402740 
	C414.362274,326.455719 413.071014,327.168121 411.870300,327.244629 
	C411.336700,325.447784 410.987061,323.570099 410.239136,321.867432 
	C405.958252,312.121277 401.616058,302.401581 397.226868,292.703644 
	C394.569946,286.833038 391.838348,280.994965 389.050934,275.185150 
	C386.789703,270.472168 384.094177,265.945190 382.135284,261.115082 
	C379.617798,254.907654 377.791290,248.423279 375.392151,242.163589 
	C373.287933,236.673309 370.804108,231.328506 368.622131,225.217880 
	C367.666687,223.960770 366.699219,222.712616 365.757935,221.444977 
	C361.965790,216.337997 362.680695,209.548767 358.366974,204.210770 
	C354.471313,199.390060 353.132660,192.511627 350.613739,186.562912 
	C350.071167,185.281494 349.303253,184.095490 348.465027,182.029114 
	C343.811829,178.117752 338.374664,180.308670 332.282745,180.004105 
	C302.462128,179.963776 272.640747,180.017151 242.821747,179.778244 
	C238.534897,179.743912 235.159424,180.342010 232.261810,184.313568 
	C231.593338,184.738434 230.706177,185.012085 230.291214,185.612228 
	C227.169876,190.126648 225.263321,194.999908 223.622101,200.372818 
	C221.417542,207.589966 219.084412,215.054214 214.247604,221.484329 
	C211.216171,225.514389 209.978043,230.962952 208.249939,235.885513 
	C206.263123,241.545090 204.623566,247.326584 202.605194,253.700089 
	C201.931412,254.383560 200.975403,254.947464 200.627335,255.768967 
	C197.003677,264.321350 193.501816,272.925171 189.916183,281.493835 
	C187.557297,287.130951 184.892975,292.651337 182.781998,298.377594 
	C181.025543,303.142242 179.876190,308.130676 177.697098,313.328827 
	C174.836868,320.170593 171.883499,326.975311 169.141739,333.864227 
	C166.205399,341.242096 163.468353,348.699249 160.450790,356.727417 
	C156.643005,366.149689 152.835205,375.571991 148.629227,385.616791 
	C146.413437,389.782684 143.932053,393.832397 142.046371,398.142670 
	C139.455688,404.064453 137.261688,410.163300 135.000702,416.224640 
	C133.199539,421.053223 131.552551,425.939301 129.866745,430.848907 
	C129.866745,430.848907 129.908279,430.884064 129.228760,430.923584 
	C128.816956,431.615295 128.405151,432.307037 127.824509,433.721222 
	C125.890640,438.189453 123.910851,442.638550 122.040627,447.133209 
	C120.967949,449.711212 120.073105,452.363220 118.622276,455.550934 
	C114.885933,463.645874 109.527260,471.275696 111.336884,481.743469 
	C115.922310,482.046326 120.507736,482.349182 126.006577,482.797272 
	C139.357452,482.715790 152.708313,482.634338 166.967804,482.744476 
	C174.659058,482.685638 182.350327,482.626770 190.948364,482.757935 
	C195.650879,482.688507 200.353394,482.619080 205.963882,482.746155 
	C212.600372,482.766052 219.236847,482.785950 226.762543,482.986694 
	C228.567825,482.913086 230.373093,482.839478 232.964539,482.787170 
M394.459961,153.510086 
	C395.028717,155.120255 395.556549,156.746292 396.173706,158.337662 
	C398.203735,163.572311 400.266083,168.794403 402.163696,174.486862 
	C402.163696,174.486862 402.500580,174.842484 402.500580,174.842484 
	C402.500580,174.842484 402.985596,174.773865 403.601837,175.086258 
	C403.816162,175.721680 404.030487,176.357101 404.089935,177.656921 
	C404.727509,178.100861 405.365082,178.544800 406.328369,179.667282 
	C414.397888,183.686371 422.695435,182.005035 431.823395,180.856766 
	C433.901062,180.353561 436.310577,180.351822 437.987183,179.242447 
	C441.452026,176.949905 444.385864,173.867798 447.790649,171.468903 
	C454.934631,166.435577 457.032043,158.869354 457.815582,150.976349 
	C458.510590,143.974991 456.404663,137.329453 451.926300,131.776352 
	C448.842010,127.951813 445.942322,123.341080 441.854492,121.085320 
	C430.597473,114.873390 418.619354,116.266907 407.100189,120.788567 
	C404.507568,121.806259 402.620880,124.911003 400.696106,127.287361 
	C394.873291,134.476456 391.044830,142.356522 392.913116,152.584274 
	C393.272919,152.693680 393.632751,152.803085 394.459961,153.510086 
M201.733002,145.207809 
	C206.120255,147.853210 210.738281,149.595734 216.896378,149.020630 
	C220.267517,148.958817 223.638672,148.897003 227.750031,148.986176 
	C228.500504,148.936890 229.250977,148.887619 230.598648,148.943924 
	C230.749405,148.628998 230.900146,148.314056 231.598938,147.381149 
	C235.729141,146.205002 240.851868,148.899567 244.787903,144.104294 
	C246.671982,141.957062 248.236710,139.363541 250.498917,137.744690 
	C257.831085,132.497665 259.940063,124.588005 262.041382,116.594574 
	C262.166504,116.118599 262.009003,115.336327 262.279633,115.164925 
	C267.411377,111.914658 264.586548,106.054131 266.707520,101.640259 
	C269.543610,95.738182 262.815247,92.364044 260.802002,87.660805 
	C259.289459,84.127205 255.783813,81.493111 253.443420,78.257507 
	C249.023087,72.146339 243.024475,67.535706 236.270813,65.288719 
	C230.150406,63.252415 223.078156,64.257034 216.497757,63.379642 
	C207.388199,62.165024 200.217453,66.026283 192.658203,70.348015 
	C188.805603,72.550591 186.693680,75.431297 184.473251,78.667267 
	C183.870056,79.546318 184.042374,81.404762 183.360962,81.712898 
	C177.278473,84.463463 177.499695,90.838074 177.075668,95.394707 
	C175.979782,107.171410 175.521255,119.255653 182.327087,130.052673 
	C186.843109,137.217072 193.136154,142.030838 201.733002,145.207809 
M361.396088,81.740425 
	C361.196686,80.827873 360.997314,79.915314 360.921173,78.462631 
	C360.614441,78.358559 360.307678,78.254494 359.238129,77.971268 
	C358.191772,77.334969 356.163910,76.471817 356.250458,76.097359 
	C357.145966,72.222809 353.662445,71.749710 351.655396,69.317558 
	C347.888489,67.669037 344.207703,64.894646 340.337311,64.598434 
	C331.343536,63.910133 322.249146,64.205162 313.216675,64.593262 
	C311.034058,64.687042 308.966583,66.759125 306.789215,67.802650 
	C298.798309,71.632439 296.149872,79.919052 292.336823,86.698524 
	C288.862183,92.876389 288.182465,100.461479 291.636688,107.838707 
	C293.728302,112.305832 294.898987,117.366562 295.593933,122.286240 
	C296.576447,129.241653 298.743866,131.802887 306.543427,132.791656 
	C306.718262,132.852859 306.893066,132.914078 307.162537,133.703430 
	C308.456390,133.941299 309.750275,134.179169 311.842773,134.662125 
	C313.395386,135.294266 314.940521,136.446838 316.501923,136.469391 
	C323.650360,136.572540 330.803345,136.359177 338.642090,136.580200 
	C340.034882,136.033249 341.427704,135.486298 343.522583,134.710556 
	C344.000488,134.612122 344.478363,134.513702 345.650757,134.699341 
	C349.768616,131.743301 354.167908,129.097275 357.896667,125.712540 
	C360.062103,123.746933 361.150543,120.594902 362.911011,117.335785 
	C362.906067,117.113251 362.901093,116.890717 363.463104,116.359314 
	C363.855743,115.563126 364.248383,114.766937 364.817047,113.150719 
	C368.608185,102.790428 366.921539,92.808388 362.878906,82.468849 
	C362.585754,82.350548 362.292633,82.232246 361.396088,81.740425 
M519.557800,202.939728 
	C518.174133,201.802567 516.803162,200.649414 515.401245,199.535278 
	C514.731201,199.002808 514.046692,198.201553 513.293518,198.104385 
	C503.653320,196.860519 493.695038,194.534851 486.292511,203.727676 
	C483.337646,207.397125 478.678772,211.243195 478.440643,215.226776 
	C477.955627,223.340820 475.897308,231.756348 482.472534,239.703613 
	C487.612335,245.915970 493.920837,248.437531 500.609222,250.760590 
	C506.040039,252.646866 510.955933,249.030136 516.102356,247.492661 
	C519.840393,246.375961 522.081177,244.513489 524.058411,241.619720 
	C524.768250,240.580963 525.416016,239.219360 526.439453,238.726532 
	C529.893188,237.063477 530.665710,233.987106 530.833679,230.754364 
	C531.066223,226.278793 530.945129,221.781525 530.882751,217.294861 
	C530.818176,212.651428 524.942139,204.704102 519.557800,202.939728 
z"/>
<path fill="#000000" opacity="1.000000" stroke="none" 
	d="
M131.981720,204.681152 
	C124.940254,204.415558 117.898788,204.149963 110.352814,203.460205 
	C108.306984,202.659897 106.765678,202.283768 105.224373,201.907639 
	C105.224373,201.907639 105.122177,201.986008 105.020416,201.602539 
	C103.969124,200.810440 103.019585,200.401810 102.070053,199.993195 
	C101.585121,199.667099 101.100197,199.340988 100.376175,198.594971 
	C102.577248,198.175049 105.017410,198.175049 108.148636,198.175049 
	C107.100281,197.389206 106.561913,196.709183 105.886688,196.521484 
	C97.384735,194.158234 91.653656,188.070984 87.047134,181.237030 
	C83.306000,175.686920 79.385132,169.434998 78.414551,163.057434 
	C77.306213,155.774750 78.118149,147.609573 80.358376,140.545471 
	C83.743088,129.872421 89.710724,120.309616 100.873123,115.601570 
	C109.076691,112.141487 117.617096,109.631859 126.554962,111.113754 
	C134.797409,112.480347 143.374542,113.379112 150.164856,119.184639 
	C152.790421,121.429436 155.367065,123.731483 158.004440,126.326599 
	C158.692352,127.433624 159.341797,128.221512 160.131729,129.326294 
	C162.185562,133.431152 164.098938,137.219116 166.136322,141.300690 
	C166.508438,142.394577 166.756561,143.194870 167.107819,144.256409 
	C167.474548,145.012329 167.738129,145.507019 168.000366,146.400452 
	C168.003448,147.861786 168.007904,148.924362 168.010025,150.383270 
	C168.008514,153.856766 168.009338,156.933914 168.005371,160.417633 
	C167.663727,163.216125 167.326889,165.608078 166.722198,168.218567 
	C160.718338,181.770493 151.330063,191.684692 138.195190,197.799408 
	C134.907242,199.330078 132.708862,201.165680 131.981720,204.681152 
M110.393135,199.201569 
	C110.786064,199.205887 111.179001,199.210220 111.571930,199.214554 
	C111.573372,199.051559 111.585815,198.746918 111.574669,198.746048 
	C111.183586,198.715683 110.790298,198.713898 110.393135,199.201569 
z"/>
<path fill="#000000" opacity="1.000000" stroke="none" 
	d="
M230.001450,148.838333 
	C229.250977,148.887619 228.500504,148.936890 227.379639,148.506134 
	C226.999405,142.269104 232.724319,146.873993 234.845917,143.198166 
	C231.524078,143.198166 228.617676,142.778336 225.873947,143.268661 
	C211.739120,145.794678 200.016190,141.939194 190.813538,130.748825 
	C190.149139,129.940918 188.963226,129.561890 188.009720,128.632416 
	C187.001389,126.852516 186.003113,125.423645 184.962250,123.617828 
	C181.210785,113.430283 178.745377,103.470627 183.108383,93.255936 
	C186.079330,86.300392 188.606918,78.962448 195.293091,74.340988 
	C203.625702,68.581535 212.727219,66.405968 222.915466,66.851357 
	C233.973801,67.334801 242.239334,71.646545 248.091919,81.015015 
	C250.084183,84.204071 252.680374,87.015839 255.032547,90.328918 
	C256.033447,91.795403 257.002441,92.932983 257.977844,94.456406 
	C260.264038,98.877274 259.103912,102.893150 258.070465,106.984077 
	C257.101685,110.819031 256.839600,114.871429 255.539734,118.572922 
	C254.223267,122.321701 252.399277,126.029762 250.103531,129.262817 
	C247.141052,133.434799 243.489151,137.117233 240.134140,141.010483 
	C240.387222,141.286530 240.640320,141.562576 240.893402,141.838623 
	C242.983551,140.296066 245.073685,138.753494 247.163818,137.210922 
	C247.314529,137.457443 247.465240,137.703949 247.615952,137.950455 
	C246.435318,140.027725 245.254684,142.105011 244.074066,144.182281 
	C240.851868,148.899567 235.729141,146.205002 231.106201,147.768051 
	C230.338974,148.319611 230.134964,148.547409 230.001450,148.838333 
z"/>
<path fill="#000000" opacity="1.000000" stroke="none" 
	d="
M362.734985,82.998978 
	C366.921539,92.808388 368.608185,102.790428 364.432037,113.612457 
	C363.663391,114.938858 363.279755,115.803520 362.896088,116.668182 
	C362.901093,116.890717 362.906067,117.113251 362.480499,117.700951 
	C360.278168,118.066116 358.506348,118.066116 356.153595,118.066116 
	C354.122070,120.310623 351.581421,123.117661 349.040741,125.924690 
	C349.277344,126.191498 349.513916,126.458305 349.750519,126.725113 
	C350.949158,126.247620 352.147797,125.770134 353.346405,125.292641 
	C352.693542,127.451332 351.379944,128.751587 350.010742,129.990387 
	C348.350494,131.492477 346.643219,132.942657 344.956268,134.415283 
	C344.478363,134.513702 344.000488,134.612122 342.822083,134.824081 
	C340.732635,135.378250 339.343658,135.818878 337.954712,136.259506 
	C330.803345,136.359177 323.650360,136.572540 316.501923,136.469391 
	C314.940521,136.446838 313.395386,135.294266 311.331299,134.233337 
	C309.569153,133.528122 308.318512,133.251709 307.067871,132.975281 
	C306.893066,132.914078 306.718262,132.852859 306.239441,132.367706 
	C305.077728,130.896515 304.220032,129.849274 303.113007,128.497620 
	C309.455322,130.176712 315.285950,131.720322 321.116547,133.263947 
	C321.274841,132.664780 321.433105,132.065598 321.591370,131.466431 
	C317.424622,130.320190 313.269623,129.128815 309.088104,128.039322 
	C304.059845,126.729202 300.587158,124.622864 299.715118,118.538780 
	C298.761475,111.885475 294.653961,105.464859 294.658081,98.944565 
	C294.664459,88.926590 300.627899,80.695961 306.614807,72.792786 
	C309.684448,68.740593 313.939758,70.137314 317.579010,69.466187 
	C323.324677,68.406609 329.459656,67.508965 335.136047,68.404716 
	C349.571381,70.682663 360.992432,85.220947 361.006042,99.973679 
	C361.007874,101.958221 361.006317,103.942772 361.006317,105.927315 
	C361.596649,105.920120 362.187012,105.912926 362.777344,105.905731 
	C362.777344,102.877831 363.132019,99.799530 362.710236,96.831581 
	C361.487915,88.230286 357.643036,80.809822 351.867615,74.337906 
	C350.710144,73.040802 348.038269,71.464272 351.843140,70.016426 
	C353.662445,71.749710 357.145966,72.222809 356.250458,76.097359 
	C356.163910,76.471817 358.191772,77.334969 359.705475,78.242790 
	C360.326233,78.747452 360.534607,78.910271 360.797943,79.002754 
	C360.997314,79.915314 361.196686,80.827873 361.760376,82.119308 
	C362.255646,82.753410 362.459076,82.920341 362.734985,82.998978 
M346.801666,127.397705 
	C346.796967,127.789085 346.792297,128.180466 346.787628,128.571854 
	C346.950256,128.573135 347.254120,128.585571 347.255066,128.574097 
	C347.285797,128.184433 347.287842,127.792519 346.801666,127.397705 
M359.476196,113.373184 
	C359.530243,113.161011 359.584290,112.948837 359.638306,112.736641 
	C359.505920,112.872673 359.373535,113.008698 359.476196,113.373184 
z"/>
<path fill="#CD5FB9" opacity="1.000000" stroke="none" 
	d="
M493.900818,425.976257 
	C492.300659,430.681610 490.887054,435.460907 489.057220,440.075165 
	C486.207703,447.260681 483.047211,454.322266 480.071991,461.458649 
	C477.647308,467.274445 475.688141,473.331726 472.713867,478.845734 
	C471.645172,480.827026 468.329620,482.264343 465.836639,482.654968 
	C461.960693,483.262299 457.911224,482.762390 453.410156,482.317383 
	C452.344818,480.808563 451.804626,479.714081 451.127808,478.342804 
	C457.694275,478.140259 456.980469,473.643860 456.982056,469.745392 
	C457.007507,407.365234 457.041473,344.984985 456.913818,282.605103 
	C456.904541,278.072144 455.666687,273.541718 455.466034,269.004425 
	C460.617340,269.006287 465.302643,269.013824 470.055969,269.383972 
	C471.082703,272.380402 472.870483,275.011841 472.877960,277.648346 
	C473.038605,334.264801 472.928894,390.882019 473.089935,447.498474 
	C473.110107,454.585907 474.238586,461.648346 470.205597,468.109344 
	C470.031982,468.387482 470.401642,469.004791 470.921570,471.053131 
	C477.471069,457.917542 482.827789,445.726929 487.274719,432.778564 
	C488.360992,430.369843 489.175049,428.187469 490.381073,426.009338 
	C491.815613,426.001160 492.858215,425.988739 493.900818,425.976257 
z"/>
<path fill="#CE61B9" opacity="1.000000" stroke="none" 
	d="
M225.873322,482.805847 
	C219.236847,482.785950 212.600372,482.766052 205.557404,482.319733 
	C206.564377,476.009674 200.195938,481.047516 199.554077,477.552856 
	C203.492142,477.281433 205.130463,475.488739 205.119141,471.068024 
	C204.947495,404.076141 205.002106,337.083740 204.986389,270.091431 
	C204.986023,268.545258 204.783737,266.999146 204.675644,265.452972 
	C202.741287,266.297333 201.825012,267.373871 201.289368,268.614716 
	C198.723526,274.558655 196.151184,280.504517 193.807251,286.537506 
	C192.622269,289.587555 191.916702,292.823883 190.685837,296.143188 
	C187.917984,301.209808 185.458664,306.109253 182.673248,311.033691 
	C181.050735,311.712463 179.754333,312.366211 178.457932,313.019989 
	C179.876190,308.130676 181.025543,303.142242 182.781998,298.377594 
	C184.892975,292.651337 187.557297,287.130951 189.916183,281.493835 
	C193.501816,272.925171 197.003677,264.321350 200.627335,255.768967 
	C200.975403,254.947464 201.931412,254.383560 203.100616,253.333069 
	C207.118652,252.471802 208.709351,250.083908 209.928848,247.003647 
	C211.413284,243.254227 213.287552,239.659149 215.390656,236.088318 
	C216.192078,238.176971 216.947662,240.174332 216.949249,242.172272 
	C217.009308,317.735504 217.012482,393.298798 216.956772,468.862061 
	C216.954407,472.061493 216.318863,475.260468 215.920242,479.004883 
	C218.749649,479.004883 221.871124,479.004883 225.178925,479.261169 
	C225.962891,479.715668 226.560577,479.913879 227.017456,480.379761 
	C226.542206,481.366943 226.207764,482.086395 225.873322,482.805847 
z"/>
<path fill="#D36CBD" opacity="1.000000" stroke="none" 
	d="
M455.000000,269.010132 
	C455.666687,273.541718 456.904541,278.072144 456.913818,282.605103 
	C457.041473,344.984985 457.007507,407.365234 456.982056,469.745392 
	C456.980469,473.643860 457.694275,478.140259 451.127808,478.342804 
	C451.804626,479.714081 452.344818,480.808563 452.956543,482.216858 
	C448.329651,482.606689 443.631226,482.682617 438.410950,482.339264 
	C438.270630,480.442535 438.483002,478.893005 439.074615,477.505127 
	C439.900940,475.566772 441.870026,473.751099 441.874329,471.879547 
	C442.023621,407.268127 442.020935,342.656281 441.875671,278.044861 
	C441.871887,276.360291 440.040039,274.679840 439.089233,272.625305 
	C440.820465,271.202118 442.429718,269.499268 444.245697,269.239044 
	C447.769043,268.734131 451.408600,269.040131 455.000000,269.010132 
z"/>
<path fill="#D36CBD" opacity="1.000000" stroke="none" 
	d="
M190.994354,295.975952 
	C191.916702,292.823883 192.622269,289.587555 193.807251,286.537506 
	C196.151184,280.504517 198.723526,274.558655 201.289368,268.614716 
	C201.825012,267.373871 202.741287,266.297333 204.675644,265.452972 
	C204.783737,266.999146 204.986023,268.545258 204.986389,270.091431 
	C205.002106,337.083740 204.947495,404.076141 205.119141,471.068024 
	C205.130463,475.488739 203.492142,477.281433 199.554077,477.552856 
	C200.195938,481.047516 206.564377,476.009674 205.103409,482.221466 
	C200.353394,482.619080 195.650879,482.688507 190.481705,482.312469 
	C189.250122,480.430328 188.485199,478.993652 187.576889,477.287689 
	C191.746719,477.332733 192.048584,474.627075 192.044815,471.262115 
	C191.981949,414.771210 192.009964,358.280151 191.957642,301.789185 
	C191.955841,299.851135 191.329559,297.913696 190.994354,295.975952 
z"/>
<path fill="#000000" opacity="1.000000" stroke="none" 
	d="
M430.979767,180.653244 
	C422.695435,182.005035 414.397888,183.686371 406.184387,179.091644 
	C406.040405,178.515991 406.055084,178.041931 406.424500,178.021622 
	C407.407288,177.129944 408.664764,176.116776 408.510193,175.414459 
	C408.090057,173.505936 407.058350,171.734726 406.293457,169.898926 
	C403.809967,163.938721 400.911407,158.109711 398.958160,151.979874 
	C395.840271,142.194977 400.282501,134.343079 406.373993,127.066536 
	C409.458099,123.382454 412.965881,121.991287 417.957886,121.794853 
	C428.689758,121.372559 438.616943,121.965683 445.500702,131.728317 
	C445.864594,132.244461 446.489349,132.576675 447.015076,133.292938 
	C447.359833,134.059357 447.682190,134.527359 448.043030,135.369583 
	C453.514496,147.088989 452.209045,160.302872 441.656525,169.027695 
	C437.639587,172.348938 434.512451,176.746323 430.979767,180.653244 
z"/>
<path fill="#D978C0" opacity="1.000000" stroke="none" 
	d="
M439.060699,272.997498 
	C440.040039,274.679840 441.871887,276.360291 441.875671,278.044861 
	C442.020935,342.656281 442.023621,407.268127 441.874329,471.879547 
	C441.870026,473.751099 439.900940,475.566772 439.074615,477.505127 
	C438.483002,478.893005 438.270630,480.442535 437.956238,482.244812 
	C433.326965,482.635803 428.630585,482.701904 423.472534,482.288086 
	C423.863708,480.539246 424.563934,478.333344 425.596039,478.165283 
	C429.825592,477.476471 431.023712,475.031982 431.021332,471.180908 
	C430.988556,418.073334 431.012970,364.965759 430.943573,311.858276 
	C430.941071,309.958405 430.117340,308.059601 429.676361,306.160278 
	C429.139771,306.137909 428.603180,306.115570 428.066589,306.093201 
	C424.043060,314.725494 420.019531,323.357758 415.719238,332.118896 
	C414.403015,332.837585 413.363556,333.427460 412.240814,333.594177 
	C412.167969,331.459900 412.178375,329.748749 412.188782,328.037598 
	C413.071014,327.168121 414.362274,326.455719 414.766663,325.402740 
	C416.807312,320.089233 418.579163,314.673004 420.554443,309.333191 
	C420.806793,308.650940 421.696808,308.204620 422.914673,307.317657 
	C427.741516,299.815948 431.251190,292.388733 432.059967,283.961823 
	C433.013611,280.913422 433.967255,277.865051 435.343201,274.419373 
	C436.863922,273.680542 437.962311,273.339020 439.060699,272.997498 
z"/>
<path fill="#D978C0" opacity="1.000000" stroke="none" 
	d="
M190.685822,296.143188 
	C191.329559,297.913696 191.955841,299.851135 191.957642,301.789185 
	C192.009964,358.280151 191.981949,414.771210 192.044815,471.262115 
	C192.048584,474.627075 191.746719,477.332733 187.576889,477.287689 
	C188.485199,478.993652 189.250122,480.430328 190.028320,482.217468 
	C182.350327,482.626770 174.659058,482.685638 166.496399,482.299744 
	C166.014816,480.904999 166.004669,479.954926 166.409546,479.003235 
	C169.362671,478.362305 171.879456,477.311798 174.443726,477.179108 
	C178.403656,476.974243 179.002563,474.640320 179.002197,471.514771 
	C178.996857,425.292725 179.015213,379.070679 178.915146,332.848846 
	C178.912354,331.560852 177.660217,330.275574 176.997314,328.607422 
	C179.002441,322.486786 181.000900,316.747742 182.999359,311.008698 
	C185.458664,306.109253 187.917984,301.209808 190.685822,296.143188 
z"/>
<path fill="#DC7DC3" opacity="1.000000" stroke="none" 
	d="
M415.996033,331.990051 
	C420.019531,323.357758 424.043060,314.725494 428.066589,306.093201 
	C428.603180,306.115570 429.139771,306.137909 429.676361,306.160278 
	C430.117340,308.059601 430.941071,309.958405 430.943573,311.858276 
	C431.012970,364.965759 430.988556,418.073334 431.021332,471.180908 
	C431.023712,475.031982 429.825592,477.476471 425.596039,478.165283 
	C424.563934,478.333344 423.863708,480.539246 423.018982,482.189026 
	C419.661926,482.637573 416.296844,482.705322 412.475189,482.330750 
	C412.765930,480.556702 413.193268,478.550507 414.319000,478.016479 
	C418.076141,476.234131 419.042999,473.392944 419.037720,469.549042 
	C418.977997,426.180420 419.049408,382.811493 418.871613,339.443512 
	C418.861420,336.955139 416.997314,334.474365 415.996033,331.990051 
z"/>
<path fill="#E188C6" opacity="1.000000" stroke="none" 
	d="
M415.719238,332.118896 
	C416.997314,334.474365 418.861420,336.955139 418.871613,339.443512 
	C419.049408,382.811493 418.977997,426.180420 419.037720,469.549042 
	C419.042999,473.392944 418.076141,476.234131 414.319000,478.016479 
	C413.193268,478.550507 412.765930,480.556702 412.028503,482.239746 
	C408.007507,482.657776 403.976654,482.724518 399.481140,482.319275 
	C399.525482,480.265839 399.731018,477.523651 400.594421,477.297943 
	C405.050537,476.132965 404.984283,472.833160 404.988373,469.471313 
	C405.011902,450.102264 405.116455,430.732208 404.956421,411.364502 
	C404.859985,399.690735 404.313843,388.020996 404.022339,376.348145 
	C403.981293,374.703979 404.451416,373.035126 404.319000,371.407471 
	C403.981720,367.261627 403.437317,363.132629 403.027222,358.636536 
	C405.635956,352.585632 408.316833,346.945190 410.660400,341.167938 
	C411.219513,339.789764 410.652496,337.954773 410.840881,335.911133 
	C411.493591,335.000671 411.908844,334.509003 412.324097,334.017334 
	C413.363556,333.427460 414.403015,332.837585 415.719238,332.118896 
z"/>
<path fill="#E693C9" opacity="1.000000" stroke="none" 
	d="
M402.975800,358.996887 
	C403.437317,363.132629 403.981720,367.261627 404.319000,371.407471 
	C404.451416,373.035126 403.981293,374.703979 404.022339,376.348145 
	C404.313843,388.020996 404.859985,399.690735 404.956421,411.364502 
	C405.116455,430.732208 405.011902,450.102264 404.988373,469.471313 
	C404.984283,472.833160 405.050537,476.132965 400.594421,477.297943 
	C399.731018,477.523651 399.525482,480.265839 399.028564,482.233826 
	C386.636871,482.487946 374.233063,482.355469 361.405945,481.822144 
	C361.986053,480.609741 362.989471,479.798157 364.461670,478.991699 
	C369.246429,478.997498 373.564178,479.077454 377.878052,478.982391 
	C386.865784,478.784302 388.747589,476.560913 389.059631,467.660919 
	C389.516571,454.626831 390.497223,441.611603 391.003326,428.578522 
	C391.190125,423.767731 391.842621,418.451782 390.134521,414.236755 
	C388.402313,409.962311 387.872223,406.227051 388.449799,401.864594 
	C388.747620,399.615021 388.031769,397.231232 387.835632,394.534241 
	C392.923492,382.439240 397.949646,370.718079 402.975800,358.996887 
z"/>
<path fill="#0D0B0C" opacity="1.000000" stroke="none" 
	d="
M132.394440,204.780014 
	C132.708862,201.165680 134.907242,199.330078 138.195190,197.799408 
	C151.330063,191.684692 160.718338,181.770493 167.001144,167.987427 
	C167.702042,165.028854 167.856094,162.519974 168.010162,160.011078 
	C168.009338,156.933914 168.008514,153.856766 168.269974,150.175018 
	C168.355408,148.380844 168.178574,147.191269 168.001724,146.001694 
	C167.738129,145.507019 167.474548,145.012329 167.362549,144.058838 
	C167.013535,142.735703 166.512924,141.871399 166.012314,141.007080 
	C164.098938,137.219116 162.185562,133.431152 160.376160,129.137787 
	C159.642059,127.757416 158.804031,126.882431 157.965988,126.007446 
	C155.367065,123.731483 152.790421,121.429436 150.164856,119.184639 
	C143.374542,113.379112 134.797409,112.480347 126.554962,111.113754 
	C117.617096,109.631859 109.076691,112.141487 100.873123,115.601570 
	C89.710724,120.309616 83.743088,129.872421 80.358376,140.545471 
	C78.118149,147.609573 77.306213,155.774750 78.414551,163.057434 
	C79.385132,169.434998 83.306000,175.686920 87.047134,181.237030 
	C91.653656,188.070984 97.384735,194.158234 105.886688,196.521484 
	C106.561913,196.709183 107.100281,197.389206 108.148636,198.175049 
	C105.017410,198.175049 102.577248,198.175049 100.073250,198.511993 
	C91.350449,197.043854 85.593506,191.690765 81.705963,183.985519 
	C79.322426,179.261230 76.813751,174.600189 74.403038,169.889374 
	C74.121185,169.338608 73.986053,168.651901 73.984459,168.027710 
	C73.961937,159.200256 72.873207,150.180649 74.367821,141.613190 
	C75.353577,135.962662 80.482315,131.153015 83.020920,125.629036 
	C87.432053,116.030472 95.992867,111.881836 104.964073,108.776970 
	C110.619133,106.819801 116.977135,105.860291 122.946167,106.123466 
	C129.400940,106.408081 135.709381,109.187729 142.189285,109.900085 
	C155.108551,111.320335 160.284103,121.525940 167.106644,130.238861 
	C175.834671,141.385162 174.264648,154.323700 173.472229,166.788437 
	C173.146698,171.908875 168.690582,176.713959 166.346313,181.770493 
	C162.222321,190.665817 153.529144,195.050659 146.707565,201.116867 
	C143.497467,203.971466 137.526840,203.721832 132.394440,204.780014 
z"/>
<path fill="#0D0B0C" opacity="1.000000" stroke="none" 
	d="
M188.019775,128.983459 
	C188.963226,129.561890 190.149139,129.940918 190.813538,130.748825 
	C200.016190,141.939194 211.739120,145.794678 225.873947,143.268661 
	C228.617676,142.778336 231.524078,143.198166 234.845917,143.198166 
	C232.724319,146.873993 226.999405,142.269104 227.009521,148.430634 
	C223.638672,148.897003 220.267517,148.958817 216.435760,148.557159 
	C214.230362,145.825027 203.889984,142.540115 201.532166,143.587570 
	C201.220139,143.726196 201.174316,144.463974 201.005219,144.924271 
	C193.136154,142.030838 186.843109,137.217072 182.327087,130.052673 
	C175.521255,119.255653 175.979782,107.171410 177.075668,95.394707 
	C177.499695,90.838074 177.278473,84.463463 183.360962,81.712898 
	C184.042374,81.404762 183.870056,79.546318 184.473251,78.667267 
	C186.693680,75.431297 188.805603,72.550591 192.658203,70.348015 
	C200.217453,66.026283 207.388199,62.165024 216.497757,63.379642 
	C223.078156,64.257034 230.150406,63.252415 236.270813,65.288719 
	C243.024475,67.535706 249.023087,72.146339 253.443420,78.257507 
	C255.783813,81.493111 259.289459,84.127205 260.802002,87.660805 
	C262.815247,92.364044 269.543610,95.738182 266.707520,101.640259 
	C264.586548,106.054131 267.411377,111.914658 262.279633,115.164925 
	C262.009003,115.336327 262.166504,116.118599 262.041382,116.594574 
	C259.940063,124.588005 257.831085,132.497665 250.498917,137.744690 
	C248.236710,139.363541 246.671982,141.957062 244.430969,144.143280 
	C245.254684,142.105011 246.435318,140.027725 247.615952,137.950455 
	C247.465240,137.703949 247.314529,137.457443 247.163818,137.210922 
	C245.073685,138.753494 242.983551,140.296066 240.893402,141.838623 
	C240.640320,141.562576 240.387222,141.286530 240.134140,141.010483 
	C243.489151,137.117233 247.141052,133.434799 250.103531,129.262817 
	C252.399277,126.029762 254.223267,122.321701 255.539734,118.572922 
	C256.839600,114.871429 257.101685,110.819031 258.070465,106.984077 
	C259.103912,102.893150 260.264038,98.877274 257.989380,94.058899 
	C256.996490,92.183701 255.998566,91.091850 255.000610,90.000000 
	C252.680374,87.015839 250.084183,84.204071 248.091919,81.015015 
	C242.239334,71.646545 233.973801,67.334801 222.915466,66.851357 
	C212.727219,66.405968 203.625702,68.581535 195.293091,74.340988 
	C188.606918,78.962448 186.079330,86.300392 183.108383,93.255936 
	C178.745377,103.470627 181.210785,113.430283 184.718597,123.805687 
	C185.684967,125.908150 186.852371,127.445801 188.019775,128.983459 
z"/>
<path fill="#B42BA7" opacity="1.000000" stroke="none" 
	d="
M477.822998,265.547729 
	C502.572418,265.416351 527.321716,265.241394 552.071228,265.200073 
	C555.834229,265.193787 556.839783,268.071686 554.792480,273.905212 
	C552.565308,276.302216 550.809570,278.179016 548.702515,280.087708 
	C547.572754,281.754456 546.794312,283.389282 546.011902,285.352051 
	C546.002258,286.117310 545.996521,286.554596 545.638794,287.049683 
	C544.655945,287.830170 543.775146,288.451294 543.433228,289.291656 
	C540.561890,296.348938 537.814514,303.456512 534.979675,310.528870 
	C532.325256,317.151154 529.609680,323.748962 526.921021,330.357574 
	C526.476929,330.253784 526.032837,330.149994 525.588745,330.046204 
	C525.588745,309.894897 525.588745,289.743561 525.588745,269.012512 
	C517.882080,269.012512 510.443024,269.012512 502.541840,269.007080 
	C496.709900,268.720703 491.340149,268.439758 485.531067,268.120361 
	C482.742462,268.079865 480.393127,268.077759 478.018616,267.654755 
	C477.936615,266.671783 477.879822,266.109741 477.822998,265.547729 
z"/>
<path fill="#0D0B0C" opacity="1.000000" stroke="none" 
	d="
M446.992676,132.994522 
	C446.489349,132.576675 445.864594,132.244461 445.500702,131.728317 
	C438.616943,121.965683 428.689758,121.372559 417.957886,121.794853 
	C412.965881,121.991287 409.458099,123.382454 406.373993,127.066536 
	C400.282501,134.343079 395.840271,142.194977 398.958160,151.979874 
	C400.911407,158.109711 403.809967,163.938721 406.293457,169.898926 
	C407.058350,171.734726 408.090057,173.505936 408.510193,175.414459 
	C408.664764,176.116776 407.407288,177.129944 406.275085,177.785477 
	C405.252441,177.377258 404.748627,177.184875 404.244812,176.992493 
	C404.030487,176.357101 403.816162,175.721680 403.228210,174.767822 
	C402.727448,174.240814 402.547943,174.098129 402.316040,174.021317 
	C400.266083,168.794403 398.203735,163.572311 396.173706,158.337662 
	C395.556549,156.746292 395.028717,155.120255 394.110840,153.003235 
	C393.552979,152.240524 393.287933,152.074646 392.966553,151.998749 
	C391.044830,142.356522 394.873291,134.476456 400.696106,127.287361 
	C402.620880,124.911003 404.507568,121.806259 407.100189,120.788567 
	C418.619354,116.266907 430.597473,114.873390 441.854492,121.085320 
	C445.942322,123.341080 448.842010,127.951813 451.926300,131.776352 
	C456.404663,137.329453 458.510590,143.974991 457.815582,150.976349 
	C457.032043,158.869354 454.934631,166.435577 447.790649,171.468903 
	C444.385864,173.867798 441.452026,176.949905 437.987183,179.242447 
	C436.310577,180.351822 433.901062,180.353561 431.401581,180.755005 
	C434.512451,176.746323 437.639587,172.348938 441.656525,169.027695 
	C452.209045,160.302872 453.514496,147.088989 448.270599,135.198090 
	C447.970673,134.099747 447.481659,133.547150 446.992676,132.994522 
z"/>
<path fill="#0D0B0C" opacity="1.000000" stroke="none" 
	d="
M519.965820,202.941513 
	C524.942139,204.704102 530.818176,212.651428 530.882751,217.294861 
	C530.945129,221.781525 531.066223,226.278793 530.833679,230.754364 
	C530.665710,233.987106 529.893188,237.063477 526.439453,238.726532 
	C525.416016,239.219360 524.768250,240.580963 524.058411,241.619720 
	C522.081177,244.513489 519.840393,246.375961 516.102356,247.492661 
	C510.955933,249.030136 506.040039,252.646866 500.609222,250.760590 
	C493.920837,248.437531 487.612335,245.915970 482.472534,239.703613 
	C475.897308,231.756348 477.955627,223.340820 478.440643,215.226776 
	C478.678772,211.243195 483.337646,207.397125 486.292511,203.727676 
	C493.695038,194.534851 503.653320,196.860519 513.293518,198.104385 
	C514.046692,198.201553 514.731201,199.002808 515.401245,199.535278 
	C516.803162,200.649414 518.174133,201.802567 519.965820,202.941513 
M495.544312,203.750000 
	C488.265869,205.692429 486.054016,212.918472 481.351868,217.542023 
	C480.629669,218.252151 480.826874,220.230621 481.083221,221.526703 
	C481.494904,223.608292 482.441498,225.578934 482.933350,227.650742 
	C485.110321,236.821198 490.883179,242.584213 499.970703,244.355988 
	C507.333466,245.791504 514.268616,243.762070 519.294739,237.995789 
	C521.665405,235.276093 522.630615,231.379578 524.565796,228.220398 
	C527.173889,223.962738 526.202576,219.884583 524.259033,215.932175 
	C519.101257,205.443420 507.498260,198.846573 495.544312,203.750000 
z"/>
<path fill="#131112" opacity="1.000000" stroke="none" 
	d="
M351.749268,69.666992 
	C348.038269,71.464272 350.710144,73.040802 351.867615,74.337906 
	C357.643036,80.809822 361.487915,88.230286 362.710236,96.831581 
	C363.132019,99.799530 362.777344,102.877831 362.777344,105.905731 
	C362.187012,105.912926 361.596649,105.920120 361.006317,105.927315 
	C361.006317,103.942772 361.007874,101.958221 361.006042,99.973679 
	C360.992432,85.220947 349.571381,70.682663 335.136047,68.404716 
	C329.459656,67.508965 323.324677,68.406609 317.579010,69.466187 
	C313.939758,70.137314 309.684448,68.740593 306.614807,72.792786 
	C300.627899,80.695961 294.664459,88.926590 294.658081,98.944565 
	C294.653961,105.464859 298.761475,111.885475 299.715118,118.538780 
	C300.587158,124.622864 304.059845,126.729202 309.088104,128.039322 
	C313.269623,129.128815 317.424622,130.320190 321.591370,131.466431 
	C321.433105,132.065598 321.274841,132.664780 321.116547,133.263947 
	C315.285950,131.720322 309.455322,130.176712 303.113007,128.497620 
	C304.220032,129.849274 305.077728,130.896515 305.986053,132.253754 
	C298.743866,131.802887 296.576447,129.241653 295.593933,122.286240 
	C294.898987,117.366562 293.728302,112.305832 291.636688,107.838707 
	C288.182465,100.461479 288.862183,92.876389 292.336823,86.698524 
	C296.149872,79.919052 298.798309,71.632439 306.789215,67.802650 
	C308.966583,66.759125 311.034058,64.687042 313.216675,64.593262 
	C322.249146,64.205162 331.343536,63.910133 340.337311,64.598434 
	C344.207703,64.894646 347.888489,67.669037 351.749268,69.666992 
z"/>
<path fill="#F0ACD3" opacity="1.000000" stroke="none" 
	d="
M125.093163,482.652039 
	C120.507736,482.349182 115.922310,482.046326 111.753304,481.364258 
	C114.915207,480.985077 117.660690,480.985077 120.406174,480.985077 
	C120.403595,480.482269 120.401016,479.979462 120.398438,479.476654 
	C118.712303,479.128632 117.026169,478.780609 114.311440,478.220306 
	C115.426163,474.997467 116.245125,472.086243 117.427628,469.331024 
	C119.499695,464.503235 121.794785,459.771210 124.266205,454.777405 
	C127.690384,446.704254 130.844818,438.852753 134.107788,430.782349 
	C134.413559,430.289459 134.672073,430.098297 135.385162,430.047729 
	C136.518158,431.923035 137.864578,433.729523 137.897964,435.559937 
	C138.098526,446.554962 137.965469,457.555634 138.013321,468.554077 
	C138.032486,472.960663 138.726471,477.691193 131.916183,477.390594 
	C131.631165,477.377991 131.299210,478.428619 130.569092,478.985718 
	C128.247269,478.987488 126.345459,478.987488 124.046928,478.987488 
	C124.560211,480.785339 124.826683,481.718689 125.093163,482.652039 
z"/>
<path fill="#ED4632" opacity="1.000000" stroke="none" 
	d="
M341.027954,469.132812 
	C339.350708,464.792053 337.739716,460.424255 335.982941,456.115936 
	C331.878754,446.050995 327.399872,436.126556 323.654144,425.931610 
	C320.599243,417.617035 318.645203,408.902100 315.706696,400.539093 
	C313.870544,395.313385 310.940277,390.482941 308.813446,385.345764 
	C306.142609,378.894592 303.725220,372.335358 301.320831,365.777924 
	C298.881897,359.126343 296.591980,352.420166 294.165527,344.995850 
	C292.945648,342.150848 291.796997,340.047882 290.707153,337.578461 
	C291.135315,336.293762 291.504761,335.375519 292.186951,334.563416 
	C293.104767,334.444550 293.709808,334.219543 294.649475,334.078369 
	C298.648224,343.443542 302.312347,352.724945 306.021912,362.381439 
	C308.403931,369.994995 310.417847,377.357910 313.150940,384.443451 
	C317.503937,395.728607 322.335938,406.828979 326.976776,418.396515 
	C333.293304,435.476501 339.598389,452.167480 345.655609,469.105286 
	C343.947815,469.278992 342.487885,469.205902 341.027954,469.132812 
z"/>
<path fill="#D142B5" opacity="1.000000" stroke="none" 
	d="
M549.053833,280.055786 
	C550.809570,278.179016 552.565308,276.302216 554.608398,274.270020 
	C555.303223,278.446991 553.401062,281.685638 550.866028,285.148193 
	C548.526062,288.344360 547.621399,292.595062 546.104431,296.389252 
	C542.513428,305.371124 538.891113,314.340820 535.366272,323.348602 
	C533.185669,328.921173 531.314880,334.618286 529.031860,340.146698 
	C525.034302,349.826874 520.749634,359.388306 516.732300,369.060547 
	C513.696472,376.369659 510.949982,383.798492 507.961395,391.127838 
	C505.680450,396.721649 503.055664,402.179077 500.888123,407.814209 
	C498.622681,413.703949 496.721069,419.733673 494.280609,425.839233 
	C492.858215,425.988739 491.815613,426.001160 490.528870,425.673737 
	C494.524139,414.557953 498.763580,403.782043 503.040405,392.644806 
	C511.281891,373.322968 519.493225,354.365509 527.683594,335.399017 
	C529.167786,331.962067 530.688477,328.532990 531.977966,325.021515 
	C534.488098,318.185852 536.780762,311.270325 539.287781,304.433472 
	C541.431885,298.586517 543.749756,292.803314 545.990723,286.991913 
	C545.996521,286.554596 546.002258,286.117310 546.353394,285.291077 
	C547.483765,283.286713 548.268799,281.671265 549.053833,280.055786 
z"/>
<path fill="#F0ACD3" opacity="1.000000" stroke="none" 
	d="
M363.992859,478.986572 
	C362.989471,479.798157 361.986053,480.609741 360.953125,481.815186 
	C358.221954,482.433685 355.520355,482.658325 352.410156,482.499878 
	C351.876862,480.445221 355.222931,478.775696 352.138336,476.753143 
	C358.847168,461.268555 365.422089,446.133179 372.290253,431.283264 
	C372.437439,435.653778 371.302155,440.011475 372.338043,443.770905 
	C375.023041,453.515198 372.081055,463.187653 372.983398,472.844879 
	C373.258881,475.792969 371.802185,476.926788 368.861420,477.097168 
	C367.207642,477.192963 365.613739,478.322632 363.992859,478.986572 
z"/>
<path fill="#F07C38" opacity="1.000000" stroke="none" 
	d="
M412.240845,333.594177 
	C411.908844,334.509003 411.493591,335.000671 410.567139,335.621826 
	C409.683594,334.893127 409.311188,334.034943 408.904846,332.797241 
	C408.198364,330.783295 407.525879,329.148926 406.774963,327.241638 
	C406.468933,326.262634 406.241302,325.556519 405.965515,324.770325 
	C405.917328,324.690186 405.994110,324.519653 406.034607,324.052399 
	C405.762756,321.178406 405.927917,318.576843 405.041534,316.404297 
	C403.009216,311.422974 400.666199,306.538391 398.050446,301.836426 
	C396.496185,299.042572 394.184570,296.670044 391.899597,293.918488 
	C391.016754,292.553131 390.423248,291.388611 389.882690,290.199951 
	C385.602356,280.788116 381.332123,271.371704 377.010406,261.591614 
	C373.933228,253.728394 370.847229,246.252686 367.892487,238.725449 
	C365.189056,231.838440 362.627472,224.895721 360.319794,218.129105 
	C361.430359,219.654907 361.964417,221.313553 363.081207,222.335114 
	C364.657471,223.776932 366.664856,224.747452 368.487915,225.919449 
	C370.804108,231.328506 373.287933,236.673309 375.392151,242.163589 
	C377.791290,248.423279 379.617798,254.907654 382.135284,261.115082 
	C384.094177,265.945190 386.789703,270.472168 389.050934,275.185150 
	C391.838348,280.994965 394.569946,286.833038 397.226868,292.703644 
	C401.616058,302.401581 405.958252,312.121277 410.239136,321.867432 
	C410.987061,323.570099 411.336700,325.447784 412.029541,327.641113 
	C412.178375,329.748749 412.167969,331.459900 412.240845,333.594177 
z"/>
<path fill="#D142B5" opacity="1.000000" stroke="none" 
	d="
M285.124390,359.100861 
	C282.297913,367.377380 279.522125,375.671692 276.620148,383.921661 
	C275.448486,387.252563 273.907166,390.452362 272.700073,393.772217 
	C270.721497,399.213837 269.005371,404.753235 266.940002,410.160309 
	C265.139191,414.874786 263.429108,419.567413 259.839661,423.508209 
	C258.106323,425.411163 257.948456,428.789856 257.194733,431.532623 
	C256.466522,434.182556 256.105957,436.949585 255.203781,439.532410 
	C252.855072,446.256592 250.387039,452.942841 247.792023,459.575867 
	C246.099487,463.902069 244.101639,468.108795 241.673492,472.686157 
	C240.406967,472.997284 239.707458,472.991333 239.007233,472.614990 
	C239.009262,471.503204 239.012009,470.761871 239.282593,469.793152 
	C240.196304,468.052612 240.916428,466.566284 241.476074,465.021820 
	C245.340637,454.356842 249.171707,443.679688 253.255493,432.835754 
	C253.663284,432.109650 253.829147,431.554199 254.258240,430.794128 
	C254.681747,429.726837 254.842010,428.864166 255.002960,427.662109 
	C254.680099,426.536530 254.356522,425.750366 254.049866,424.674805 
	C254.373581,423.928802 254.680374,423.472198 255.333466,422.964386 
	C256.125366,421.950012 256.570984,420.986847 257.367981,419.958923 
	C259.149780,415.934113 260.580139,411.973969 262.006470,408.006927 
	C262.002441,408.000000 262.018646,408.010284 262.367981,407.953003 
	C264.148102,404.609253 265.578888,401.322754 267.237671,397.882751 
	C267.315582,397.140625 267.165466,396.552032 267.015991,395.727600 
	C267.016663,395.491760 267.009979,395.020172 267.006317,395.012695 
	C267.002655,395.005219 267.017365,394.999878 267.281616,394.883972 
	C268.039124,394.193604 268.532349,393.619141 269.268921,392.867157 
	C269.677063,392.124115 269.841919,391.558624 270.011871,390.618896 
	C270.906769,388.375244 272.140289,386.584808 272.593109,384.614929 
	C273.080963,382.492493 272.837585,380.201996 272.930817,377.728638 
	C272.964783,377.302124 272.981201,377.131714 273.344818,376.922119 
	C279.237061,372.825165 278.497742,365.983917 280.865601,360.519836 
	C281.002502,360.203949 280.248413,359.501984 279.920502,358.658813 
	C279.955750,357.911346 279.979492,357.484741 280.366333,357.061890 
	C282.194427,357.744019 283.659424,358.422455 285.124390,359.100861 
z"/>
<path fill="#C85A9F" opacity="1.000000" stroke="none" 
	d="
M214.993164,235.997284 
	C213.287552,239.659149 211.413284,243.254227 209.928848,247.003647 
	C208.709351,250.083908 207.118652,252.471802 203.214630,253.010590 
	C204.623566,247.326584 206.263123,241.545090 208.249939,235.885513 
	C209.978043,230.962952 211.216171,225.514389 214.247604,221.484329 
	C219.084412,215.054214 221.417542,207.589966 223.622101,200.372818 
	C225.263321,194.999908 227.169876,190.126648 230.291214,185.612228 
	C230.706177,185.012085 231.593338,184.738434 232.667618,184.620834 
	C233.026260,185.635345 232.979095,186.342590 232.931885,187.359314 
	C232.991241,189.097000 233.050629,190.525208 232.786224,192.115021 
	C230.637848,196.849609 228.813263,201.422623 226.707184,206.209442 
	C225.185989,209.489731 223.900558,212.538666 222.715912,215.626266 
	C220.114594,222.406219 217.564301,229.205750 214.993164,235.997284 
z"/>
<path fill="#ED4632" opacity="1.000000" stroke="none" 
	d="
M368.555023,225.568665 
	C366.664856,224.747452 364.657471,223.776932 363.081207,222.335114 
	C361.964417,221.313553 361.430359,219.654907 360.318604,218.141525 
	C360.001038,218.002411 360.021912,218.008911 360.031952,217.606873 
	C356.703674,208.967087 353.449463,200.693634 349.974213,192.514099 
	C348.973175,190.158005 347.335480,188.072388 345.803772,185.542450 
	C343.890503,184.473328 342.204132,183.224716 340.427277,183.078934 
	C336.634399,182.767761 332.794617,183.028076 328.508606,183.031769 
	C321.353821,183.031876 314.664490,183.054504 307.509583,183.051788 
	C299.355865,183.046402 291.667725,183.066360 283.513672,183.061157 
	C268.391754,183.046753 253.735733,183.057480 239.287552,182.697296 
	C240.318787,182.214874 241.141220,182.013840 241.965744,182.004807 
	C271.288300,181.683746 300.610962,181.374771 329.933960,181.097122 
	C331.076385,181.086288 332.221863,181.399841 333.687134,181.733414 
	C338.885284,182.224884 343.762238,182.545197 348.639160,182.865524 
	C349.303253,184.095490 350.071167,185.281494 350.613739,186.562912 
	C353.132660,192.511627 354.471313,199.390060 358.366974,204.210770 
	C362.680695,209.548767 361.965790,216.337997 365.757935,221.444977 
	C366.699219,222.712616 367.666687,223.960770 368.555023,225.568665 
z"/>
<path fill="#E188C6" opacity="1.000000" stroke="none" 
	d="
M134.991852,429.989990 
	C134.672073,430.098297 134.413559,430.289459 133.692261,430.780457 
	C132.057861,430.931580 130.947495,430.865723 129.837128,430.799866 
	C131.552551,425.939301 133.199539,421.053223 135.000702,416.224640 
	C137.261688,410.163300 139.455688,404.064453 142.046371,398.142670 
	C143.932053,393.832397 146.413437,389.782684 149.190613,385.269318 
	C151.165131,384.611298 152.578278,384.300751 153.852676,384.315979 
	C152.809250,387.094910 151.904587,389.548065 150.728073,392.225677 
	C150.024063,393.519714 149.598526,394.592010 149.158646,395.658386 
	C144.437668,407.102783 139.714462,418.546265 134.991852,429.989990 
z"/>
<path fill="#D36CBD" opacity="1.000000" stroke="none" 
	d="
M182.673248,311.033691 
	C181.000900,316.747742 179.002441,322.486786 176.719940,328.817688 
	C173.621689,335.937012 170.807465,342.464447 167.637405,348.999451 
	C164.454102,349.569855 162.553467,350.429169 165.979736,353.297974 
	C165.636856,354.066467 165.318512,354.537231 164.631836,355.043884 
	C163.057098,355.427124 161.850723,355.774445 160.644348,356.121765 
	C163.468353,348.699249 166.205399,341.242096 169.141739,333.864227 
	C171.883499,326.975311 174.836868,320.170593 178.077515,313.174408 
	C179.754333,312.366211 181.050735,311.712463 182.673248,311.033691 
z"/>
<path fill="#C85A9F" opacity="1.000000" stroke="none" 
	d="
M477.419952,265.457703 
	C477.879822,266.109741 477.936615,266.671783 477.722107,267.921936 
	C474.963165,268.747192 472.475525,268.884277 469.987915,269.021362 
	C465.302643,269.013824 460.617340,269.006287 455.466034,269.004456 
	C451.408600,269.040131 447.769043,268.734131 444.245697,269.239044 
	C442.429718,269.499268 440.820465,271.202118 439.089233,272.625305 
	C437.962311,273.339020 436.863922,273.680542 435.416992,274.017456 
	C435.396973,273.454651 435.979218,272.912506 436.015778,272.335815 
	C436.519165,264.396057 442.087860,264.972839 447.683289,265.104980 
	C457.457794,265.335907 467.238678,265.294800 477.419952,265.457703 
z"/>
<path fill="#E188C6" opacity="1.000000" stroke="none" 
	d="
M125.549866,482.724670 
	C124.826683,481.718689 124.560211,480.785339 124.046928,478.987488 
	C126.345459,478.987488 128.247269,478.987488 131.037048,478.994080 
	C136.946732,478.996460 141.968430,478.992188 147.458710,478.992401 
	C153.280167,478.994659 158.633041,478.992432 164.320709,478.993774 
	C165.101837,478.999817 165.548172,479.002350 165.994507,479.004883 
	C166.004669,479.954926 166.014816,480.904999 166.042084,482.203949 
	C152.708313,482.634338 139.357452,482.715790 125.549866,482.724670 
z"/>
<path fill="#131112" opacity="1.000000" stroke="none" 
	d="
M333.365936,181.562256 
	C332.221863,181.399841 331.076385,181.086288 329.933960,181.097122 
	C300.610962,181.374771 271.288300,181.683746 241.965744,182.004807 
	C241.141220,182.013840 240.318787,182.214874 239.126251,182.768646 
	C238.508438,183.389343 238.482544,183.595734 238.289948,183.894470 
	C236.244263,184.989182 234.588089,186.019516 232.931915,187.049835 
	C232.979095,186.342590 233.026260,185.635345 233.009552,184.583099 
	C235.159424,180.342010 238.534897,179.743912 242.821747,179.778244 
	C272.640747,180.017151 302.462128,179.963776 332.744629,180.415253 
	C333.259644,181.071671 333.312805,181.316971 333.365936,181.562256 
z"/>
<path fill="#DC7DC3" opacity="1.000000" stroke="none" 
	d="
M160.547577,356.424591 
	C161.850723,355.774445 163.057098,355.427124 164.599854,355.389008 
	C164.626740,356.801819 164.317245,357.905396 163.860229,359.336731 
	C160.472290,367.773041 157.231873,375.881653 153.991425,383.990234 
	C152.578278,384.300751 151.165131,384.611298 149.389694,384.958069 
	C152.835205,375.571991 156.643005,366.149689 160.547577,356.424591 
z"/>
<path fill="#EC9FCD" opacity="1.000000" stroke="none" 
	d="
M123.996452,454.999054 
	C121.794785,459.771210 119.499695,464.503235 117.427628,469.331024 
	C116.245125,472.086243 115.426163,474.997467 114.311440,478.220306 
	C117.026169,478.780609 118.712303,479.128632 120.398438,479.476654 
	C120.401016,479.979462 120.403595,480.482269 120.406174,480.985077 
	C117.660690,480.985077 114.915207,480.985077 111.753395,480.972900 
	C109.527260,471.275696 114.885933,463.645874 119.266251,455.271790 
	C121.272308,454.994781 122.634377,454.996918 123.996452,454.999054 
z"/>
<path fill="#E188C6" opacity="1.000000" stroke="none" 
	d="
M285.427124,358.908630 
	C283.659424,358.422455 282.194427,357.744019 280.415680,356.694458 
	C282.594666,350.346863 285.087433,344.370392 287.955292,338.284180 
	C289.103058,338.097961 289.875702,338.021454 290.648376,337.944916 
	C291.796997,340.047882 292.945648,342.150848 293.985168,344.631348 
	C292.936096,346.133514 291.796722,347.146820 291.094635,348.404297 
	C289.206604,351.785980 287.505280,355.271881 285.427124,358.908630 
z"/>
<path fill="#E693C9" opacity="1.000000" stroke="none" 
	d="
M124.266205,454.777405 
	C122.634377,454.996918 121.272308,454.994781 119.504211,454.987274 
	C120.073105,452.363220 120.967949,449.711212 122.040627,447.133209 
	C123.910851,442.638550 125.890640,438.189453 128.237640,433.315674 
	C129.069946,432.234741 129.489120,431.559418 129.908279,430.884064 
	C129.908279,430.884064 129.866745,430.848907 129.851929,430.824402 
	C130.947495,430.865723 132.057861,430.931580 133.583740,430.999329 
	C130.844818,438.852753 127.690384,446.704254 124.266205,454.777405 
z"/>
<path fill="#131112" opacity="1.000000" stroke="none" 
	d="
M345.303528,134.557312 
	C346.643219,132.942657 348.350494,131.492477 350.010742,129.990387 
	C351.379944,128.751587 352.693542,127.451332 353.346405,125.292641 
	C352.147797,125.770134 350.949158,126.247620 349.750519,126.725113 
	C349.513916,126.458305 349.277344,126.191498 349.040741,125.924690 
	C351.581421,123.117661 354.122070,120.310623 356.153595,118.066116 
	C358.506348,118.066116 360.278168,118.066116 362.386810,118.021423 
	C361.150543,120.594902 360.062103,123.746933 357.896667,125.712540 
	C354.167908,129.097275 349.768616,131.743301 345.303528,134.557312 
z"/>
<path fill="#EC9FCD" opacity="1.000000" stroke="none" 
	d="
M352.004456,477.102356 
	C355.222931,478.775696 351.876862,480.445221 351.984344,482.436035 
	C348.613892,481.562469 345.285736,480.731537 344.819122,476.007324 
	C344.606110,473.850891 342.378937,471.893402 341.046631,469.489258 
	C342.487885,469.205902 343.947815,469.278992 345.995270,469.192444 
	C347.037903,469.103210 347.493042,469.173645 347.981232,469.630432 
	C348.034424,473.116302 348.116486,476.180969 352.004456,477.102356 
z"/>
<path fill="#C85A9F" opacity="1.000000" stroke="none" 
	d="
M239.007965,472.985382 
	C239.707458,472.991333 240.406967,472.997284 241.455963,473.000732 
	C241.805450,474.958588 241.805450,476.918915 241.805450,479.540558 
	C239.041016,480.555756 236.002777,481.671448 232.468384,482.490967 
	C231.256561,481.500031 230.540894,480.805267 230.208496,480.041687 
	C234.507599,478.981201 236.882416,476.133392 239.007965,472.985382 
z"/>
<path fill="#C85A9F" opacity="1.000000" stroke="none" 
	d="
M431.659454,283.948792 
	C431.251190,292.388733 427.741516,299.815948 423.168762,307.102753 
	C424.877808,300.919861 426.911560,294.605225 429.066345,288.332153 
	C429.593750,286.796814 430.517426,285.397552 431.659454,283.948792 
z"/>
<path fill="#000000" opacity="1.000000" stroke="none" 
	d="
M201.369110,145.066040 
	C201.174316,144.463974 201.220139,143.726196 201.532166,143.587570 
	C203.889984,142.540115 214.230362,145.825027 215.983429,148.472961 
	C210.738281,149.595734 206.120255,147.853210 201.369110,145.066040 
z"/>
<path fill="#E13C18" opacity="1.000000" stroke="none" 
	d="
M333.687134,181.733414 
	C333.312805,181.316971 333.259644,181.071671 333.227783,180.450348 
	C338.374664,180.308670 343.811829,178.117752 348.552094,182.447327 
	C343.762238,182.545197 338.885284,182.224884 333.687134,181.733414 
z"/>
<path fill="#F0ACD3" opacity="1.000000" stroke="none" 
	d="
M229.825226,480.110504 
	C230.540894,480.805267 231.256561,481.500031 232.075302,482.480347 
	C230.373093,482.839478 228.567825,482.913086 226.317932,482.896301 
	C226.207764,482.086395 226.542206,481.366943 227.349747,480.365356 
	C228.490311,480.092316 229.157761,480.101410 229.825226,480.110504 
z"/>
<path fill="#131112" opacity="1.000000" stroke="none" 
	d="
M338.298401,136.419861 
	C339.343658,135.818878 340.732635,135.378250 342.471039,134.938477 
	C341.427704,135.486298 340.034882,136.033249 338.298401,136.419861 
z"/>
<path fill="#0D0B0C" opacity="1.000000" stroke="none" 
	d="
M105.441277,202.202057 
	C106.765678,202.283768 108.306984,202.659897 109.932602,203.374634 
	C108.563995,203.307663 107.111092,202.902069 105.441277,202.202057 
z"/>
<path fill="#131112" opacity="1.000000" stroke="none" 
	d="
M307.115204,133.339355 
	C308.318512,133.251709 309.569153,133.528122 310.931946,134.110779 
	C309.750275,134.179169 308.456390,133.941299 307.115204,133.339355 
z"/>
<path fill="#131112" opacity="1.000000" stroke="none" 
	d="
M363.179596,116.513748 
	C363.279755,115.803520 363.663391,114.938858 364.344025,114.022476 
	C364.248383,114.766937 363.855743,115.563126 363.179596,116.513748 
z"/>
<path fill="#131112" opacity="1.000000" stroke="none" 
	d="
M101.985886,200.377991 
	C103.019585,200.401810 103.969124,200.810440 104.985703,201.548309 
	C104.002396,201.505966 102.952057,201.134384 101.985886,200.377991 
z"/>
<path fill="#E188C6" opacity="1.000000" stroke="none" 
	d="
M129.568512,430.903809 
	C129.489120,431.559418 129.069946,432.234741 128.322052,432.954437 
	C128.405151,432.307037 128.816956,431.615295 129.568512,430.903809 
z"/>
<path fill="#131112" opacity="1.000000" stroke="none" 
	d="
M404.167389,177.324707 
	C404.748627,177.184875 405.252441,177.377258 405.905640,177.805786 
	C406.055084,178.041931 406.040405,178.515991 406.021545,178.752365 
	C405.365082,178.544800 404.727509,178.100861 404.167389,177.324707 
z"/>
<path fill="#131112" opacity="1.000000" stroke="none" 
	d="
M360.859558,78.732697 
	C360.534607,78.910271 360.326233,78.747452 360.086884,78.332367 
	C360.307678,78.254494 360.614441,78.358559 360.859558,78.732697 
z"/>
<path fill="#131112" opacity="1.000000" stroke="none" 
	d="
M402.239868,174.254089 
	C402.547943,174.098129 402.727448,174.240814 402.920105,174.611633 
	C402.985596,174.773865 402.500580,174.842484 402.500580,174.842484 
	C402.500580,174.842484 402.163696,174.486862 402.239868,174.254089 
z"/>
<path fill="#131112" opacity="1.000000" stroke="none" 
	d="
M392.939819,152.291504 
	C393.287933,152.074646 393.552979,152.240524 393.877136,152.704437 
	C393.632751,152.803085 393.272919,152.693680 392.939819,152.291504 
z"/>
<path fill="#0D0B0C" opacity="1.000000" stroke="none" 
	d="
M230.300049,148.891129 
	C230.134964,148.547409 230.338974,148.319611 230.832184,148.077026 
	C230.900146,148.314056 230.749405,148.628998 230.300049,148.891129 
z"/>
<path fill="#131112" opacity="1.000000" stroke="none" 
	d="
M362.806946,82.733917 
	C362.459076,82.920341 362.255646,82.753410 362.062073,82.306068 
	C362.292633,82.232246 362.585754,82.350548 362.806946,82.733917 
z"/>
<path fill="#131112" opacity="1.000000" stroke="none" 
	d="
M168.005371,160.417633 
	C167.856094,162.519974 167.702042,165.028854 167.269012,167.768890 
	C167.326889,165.608078 167.663727,163.216125 168.005371,160.417633 
z"/>
<path fill="#131112" opacity="1.000000" stroke="none" 
	d="
M158.004440,126.326599 
	C158.804031,126.882431 159.642059,127.757416 160.235687,128.820892 
	C159.341797,128.221512 158.692352,127.433624 158.004440,126.326599 
z"/>
<path fill="#131112" opacity="1.000000" stroke="none" 
	d="
M166.136322,141.300690 
	C166.512924,141.871399 167.013535,142.735703 167.259415,143.797577 
	C166.756561,143.194870 166.508438,142.394577 166.136322,141.300690 
z"/>
<path fill="#131112" opacity="1.000000" stroke="none" 
	d="
M168.000366,146.400452 
	C168.178574,147.191269 168.355408,148.380844 168.272308,149.778687 
	C168.007904,148.924362 168.003448,147.861786 168.000366,146.400452 
z"/>
<path fill="#0D0B0C" opacity="1.000000" stroke="none" 
	d="
M110.395226,198.954819 
	C110.790298,198.713898 111.183586,198.715683 111.574669,198.746048 
	C111.585815,198.746918 111.573372,199.051559 111.571930,199.214554 
	C111.179001,199.210220 110.786064,199.205887 110.395226,198.954819 
z"/>
<path fill="#131112" opacity="1.000000" stroke="none" 
	d="
M188.009720,128.632416 
	C186.852371,127.445801 185.684967,125.908150 184.761200,124.182632 
	C186.003113,125.423645 187.001389,126.852516 188.009720,128.632416 
z"/>
<path fill="#131112" opacity="1.000000" stroke="none" 
	d="
M255.032547,90.328918 
	C255.998566,91.091850 256.996490,92.183701 257.982910,93.673050 
	C257.002441,92.932983 256.033447,91.795403 255.032547,90.328918 
z"/>
<path fill="#131112" opacity="1.000000" stroke="none" 
	d="
M347.047852,127.399307 
	C347.287842,127.792519 347.285797,128.184433 347.255066,128.574097 
	C347.254120,128.585571 346.950256,128.573135 346.787628,128.571854 
	C346.792297,128.180466 346.796967,127.789085 347.047852,127.399307 
z"/>
<path fill="#131112" opacity="1.000000" stroke="none" 
	d="
M359.358673,113.258957 
	C359.373535,113.008698 359.505920,112.872673 359.638306,112.736649 
	C359.584290,112.948837 359.530243,113.161011 359.358673,113.258957 
z"/>
<path fill="#C753B5" opacity="1.000000" stroke="none" 
	d="
M470.055969,269.383972 
	C472.475525,268.884277 474.963165,268.747192 477.747284,268.342896 
	C480.393127,268.077759 482.742462,268.079865 485.550812,268.483521 
	C490.966156,272.439423 489.991425,277.720856 489.992889,282.692017 
	C490.005341,324.691681 489.765839,366.693909 490.227936,408.688507 
	C490.305939,415.775024 488.969849,421.874634 486.128510,428.076263 
	C485.556976,429.323822 486.667480,431.342010 487.002441,433.004883 
	C482.827789,445.726929 477.471069,457.917542 470.921570,471.053131 
	C470.401642,469.004791 470.031982,468.387482 470.205597,468.109344 
	C474.238586,461.648346 473.110107,454.585907 473.089935,447.498474 
	C472.928894,390.882019 473.038605,334.264801 472.877960,277.648346 
	C472.870483,275.011841 471.082703,272.380402 470.055969,269.383972 
z"/>
<path fill="#C146B0" opacity="1.000000" stroke="none" 
	d="
M487.274719,432.778564 
	C486.667480,431.342010 485.556976,429.323822 486.128510,428.076263 
	C488.969849,421.874634 490.305939,415.775024 490.227936,408.688507 
	C489.765839,366.693909 490.005341,324.691681 489.992889,282.692017 
	C489.991425,277.720856 490.966156,272.439423 485.990112,268.521973 
	C491.340149,268.439758 496.709900,268.720703 502.602478,269.365417 
	C506.112396,271.689667 507.109741,274.312531 507.089996,277.995483 
	C506.929718,307.888153 507.004791,337.782013 506.992401,367.675537 
	C506.991180,370.574524 507.427338,373.617371 506.706299,376.340851 
	C505.413910,381.222595 503.331696,385.891357 501.766144,390.709778 
	C501.580566,391.280945 502.562347,392.231415 503.002991,393.006104 
	C498.763580,403.782043 494.524139,414.557953 490.136902,425.669464 
	C489.175049,428.187469 488.360992,430.369843 487.274719,432.778564 
z"/>
<path fill="#C44CB2" opacity="1.000000" stroke="none" 
	d="
M230.208496,480.041687 
	C229.157761,480.101410 228.490311,480.092316 227.490555,480.097656 
	C226.560577,479.913879 225.962891,479.715668 225.344681,478.944397 
	C228.474472,476.328003 229.064148,473.361908 229.059525,469.772491 
	C228.977448,405.960571 229.000000,342.148468 229.000000,278.336426 
	C229.000000,255.843933 229.041504,233.351212 228.913376,210.859436 
	C228.904129,209.234558 227.659119,207.616730 226.988678,205.995621 
	C228.813263,201.422623 230.637848,196.849609 233.077759,192.309662 
	C237.068649,200.899689 240.444214,209.456650 243.437836,218.120132 
	C242.703949,220.256470 242.045670,222.286041 242.044250,224.316086 
	C241.991699,299.208801 242.017593,374.101562 241.940582,448.994202 
	C241.937225,452.251465 241.060608,455.507202 240.598373,458.764740 
	C240.066086,462.516052 239.542252,466.268524 239.014740,470.020508 
	C239.012009,470.761871 239.009262,471.503204 239.007233,472.614990 
	C236.882416,476.133392 234.507599,478.981201 230.208496,480.041687 
z"/>
<path fill="#C956B6" opacity="1.000000" stroke="none" 
	d="
M226.707184,206.209442 
	C227.659119,207.616730 228.904129,209.234558 228.913376,210.859436 
	C229.041504,233.351212 229.000000,255.843933 229.000000,278.336426 
	C229.000000,342.148468 228.977448,405.960571 229.059525,469.772491 
	C229.064148,473.361908 228.474472,476.328003 225.158386,478.688110 
	C221.871124,479.004883 218.749649,479.004883 215.920242,479.004883 
	C216.318863,475.260468 216.954407,472.061493 216.956772,468.862061 
	C217.012482,393.298798 217.009308,317.735504 216.949249,242.172272 
	C216.947662,240.174332 216.192078,238.176971 215.390640,236.088318 
	C217.564301,229.205750 220.114594,222.406219 222.715912,215.626266 
	C223.900558,212.538666 225.185989,209.489731 226.707184,206.209442 
z"/>
<path fill="#131112" opacity="1.000000" stroke="none" 
	d="
M447.015076,133.292938 
	C447.481659,133.547150 447.970673,134.099747 448.232117,134.823853 
	C447.682190,134.527359 447.359833,134.059357 447.015076,133.292938 
z"/>
<path fill="#DE82C4" opacity="1.000000" stroke="none" 
	d="
M164.007751,359.009003 
	C164.317245,357.905396 164.626740,356.801819 164.968216,355.353088 
	C165.318512,354.537231 165.636856,354.066467 166.237305,353.102905 
	C167.010712,351.404053 167.501984,350.197968 167.993256,348.991913 
	C170.807465,342.464447 173.621689,335.937012 176.713287,329.199280 
	C177.660217,330.275574 178.912354,331.560852 178.915146,332.848846 
	C179.015213,379.070679 178.996857,425.292725 179.002197,471.514771 
	C179.002563,474.640320 178.403656,476.974243 174.443726,477.179108 
	C171.879456,477.311798 169.362671,478.362305 166.409546,479.003235 
	C165.548172,479.002350 165.101837,478.999817 164.367020,478.626404 
	C165.051575,475.840302 166.859619,473.429443 166.872147,471.009247 
	C167.054733,435.723145 167.047195,400.435547 166.869385,365.149384 
	C166.859055,363.097839 165.004196,361.055573 164.007751,359.009003 
z"/>
<path fill="#FCF3F6" opacity="1.000000" stroke="none" 
	d="
M352.138336,476.753143 
	C348.116486,476.180969 348.034424,473.116302 348.237244,469.362183 
	C349.718658,465.663086 350.977173,462.618652 352.497101,459.303040 
	C360.886047,440.375397 369.013550,421.718872 377.403900,402.828400 
	C387.614410,379.557373 397.558472,356.518738 407.554993,333.502899 
	C407.667908,333.242889 408.462433,333.278931 408.938782,333.176788 
	C409.311188,334.034943 409.683594,334.893127 410.329712,336.040588 
	C410.652496,337.954773 411.219513,339.789764 410.660400,341.167938 
	C408.316833,346.945190 405.635956,352.585632 403.027222,358.636536 
	C397.949646,370.718079 392.923492,382.439240 387.592651,394.773071 
	C382.190948,407.256409 377.093964,419.127106 371.997009,430.997803 
	C365.422089,446.133179 358.847168,461.268555 352.138336,476.753143 
z"/>
<path fill="#EC9FCD" opacity="1.000000" stroke="none" 
	d="
M372.290222,431.283234 
	C377.093964,419.127106 382.190948,407.256409 387.530945,395.146912 
	C388.031769,397.231232 388.747620,399.615021 388.449799,401.864594 
	C387.872223,406.227051 388.402313,409.962311 390.134521,414.236755 
	C391.842621,418.451782 391.190125,423.767731 391.003326,428.578522 
	C390.497223,441.611603 389.516571,454.626831 389.059631,467.660919 
	C388.747589,476.560913 386.865784,478.784302 377.878052,478.982391 
	C373.564178,479.077454 369.246429,478.997498 364.461670,478.991669 
	C365.613739,478.322632 367.207642,477.192963 368.861420,477.097168 
	C371.802185,476.926788 373.258881,475.792969 372.983398,472.844879 
	C372.081055,463.187653 375.023041,453.515198 372.338043,443.770905 
	C371.302155,440.011475 372.437439,435.653778 372.290222,431.283234 
z"/>
<path fill="#BA39AC" opacity="1.000000" stroke="none" 
	d="
M503.040375,392.644806 
	C502.562347,392.231415 501.580566,391.280945 501.766144,390.709778 
	C503.331696,385.891357 505.413910,381.222595 506.706299,376.340851 
	C507.427338,373.617371 506.991180,370.574524 506.992401,367.675537 
	C507.004791,337.782013 506.929718,307.888153 507.089996,277.995483 
	C507.109741,274.312531 506.112396,271.689667 503.064636,269.370850 
	C510.443024,269.012512 517.882080,269.012512 525.588745,269.012512 
	C525.588745,289.743561 525.588745,309.894897 525.588745,330.046204 
	C526.032837,330.149994 526.476929,330.253784 526.921021,330.357574 
	C529.609680,323.748962 532.325256,317.151154 534.979675,310.528870 
	C537.814514,303.456512 540.561890,296.348938 543.433228,289.291656 
	C543.775146,288.451294 544.655945,287.830170 545.638794,287.049683 
	C543.749756,292.803314 541.431885,298.586517 539.287781,304.433472 
	C536.780762,311.270325 534.488098,318.185852 531.977966,325.021515 
	C530.688477,328.532990 529.167786,331.962067 527.683594,335.399017 
	C519.493225,354.365509 511.281891,373.322968 503.040375,392.644806 
z"/>
<path fill="#BA39AC" opacity="1.000000" stroke="none" 
	d="
M548.702515,280.087708 
	C548.268799,281.671265 547.483765,283.286713 546.357300,284.963135 
	C546.794312,283.389282 547.572754,281.754456 548.702515,280.087708 
z"/>
<path fill="#000000" opacity="1.000000" stroke="none" 
	d="
M495.900665,203.576599 
	C507.498260,198.846573 519.101257,205.443420 524.259033,215.932175 
	C526.202576,219.884583 527.173889,223.962738 524.565796,228.220398 
	C522.630615,231.379578 521.665405,235.276093 519.294739,237.995789 
	C514.268616,243.762070 507.333466,245.791504 499.970703,244.355988 
	C490.883179,242.584213 485.110321,236.821198 482.933350,227.650742 
	C482.441498,225.578934 481.494904,223.608292 481.083221,221.526703 
	C480.826874,220.230621 480.629669,218.252151 481.351868,217.542023 
	C486.054016,212.918472 488.265869,205.692429 495.900665,203.576599 
z"/>
<path fill="#EA9ACC" opacity="1.000000" stroke="none" 
	d="
M146.990143,478.987915 
	C141.968430,478.992188 136.946732,478.996460 131.457062,478.992310 
	C131.299210,478.428619 131.631165,477.377991 131.916183,477.390594 
	C138.726471,477.691193 138.032486,472.960663 138.013321,468.554077 
	C137.965469,457.555634 138.098526,446.554962 137.897964,435.559937 
	C137.864578,433.729523 136.518158,431.923035 135.385162,430.047729 
	C139.714462,418.546265 144.437668,407.102783 149.158646,395.658386 
	C149.598526,394.592010 150.024063,393.519714 150.962738,392.537537 
	C151.979507,394.431702 152.926208,396.236603 152.933899,398.045471 
	C153.033676,421.490295 153.002823,444.935699 152.997375,468.380951 
	C152.996414,472.538239 154.208603,477.430908 147.492767,477.651031 
	C147.310822,477.656982 147.157059,478.522980 146.990143,478.987915 
z"/>
<path fill="#EA5C0C" opacity="1.000000" stroke="none" 
	d="
M352.235657,459.574188 
	C350.977173,462.618652 349.718658,465.663086 348.204163,468.975830 
	C347.493042,469.173645 347.037903,469.103210 346.243134,468.945618 
	C339.598389,452.167480 333.293304,435.476501 327.286682,418.160339 
	C328.056763,415.477570 328.939026,413.420319 328.940704,411.362335 
	C329.002441,335.259674 328.982697,259.156982 328.974060,183.054260 
	C332.794617,183.028076 336.634399,182.767761 340.427277,183.078934 
	C342.204132,183.224716 343.890503,184.473328 345.804443,185.944931 
	C348.018921,192.105804 350.046844,197.543884 351.763977,203.266190 
	C351.302124,205.022614 351.019257,206.494781 351.018860,207.967010 
	C350.997620,289.579468 350.990082,371.191895 351.051758,452.804321 
	C351.053467,455.061249 351.823730,457.317566 352.235657,459.574188 
z"/>
<path fill="#E7520F" opacity="1.000000" stroke="none" 
	d="
M328.508606,183.031769 
	C328.982697,259.156982 329.002441,335.259674 328.940704,411.362335 
	C328.939026,413.420319 328.056763,415.477570 327.275238,417.771332 
	C322.335938,406.828979 317.503937,395.728607 313.150940,384.443451 
	C310.417847,377.357910 308.403931,369.994995 306.303955,362.141479 
	C306.990692,354.448700 307.563538,347.375946 307.848419,340.291565 
	C308.042114,335.474243 307.813965,330.640717 307.807770,325.814392 
	C307.798889,318.902191 307.834778,311.989929 307.824677,305.077728 
	C307.815247,298.602020 307.806641,292.125916 307.731689,285.650787 
	C307.657043,279.206482 307.453827,272.763641 307.391846,266.319305 
	C307.322021,259.064117 307.327515,251.807953 307.336823,244.552277 
	C307.344666,238.420105 307.362579,232.287369 307.453186,226.156036 
	C307.551147,219.529739 307.794067,212.905441 307.872437,206.279068 
	C307.963928,198.545761 307.945740,190.811157 307.975128,183.077118 
	C314.664490,183.054504 321.353821,183.031876 328.508606,183.031769 
z"/>
<path fill="#E44813" opacity="1.000000" stroke="none" 
	d="
M307.509583,183.051788 
	C307.945740,190.811157 307.963928,198.545761 307.872437,206.279068 
	C307.794067,212.905441 307.551147,219.529739 307.453186,226.156036 
	C307.362579,232.287369 307.344666,238.420105 307.336823,244.552277 
	C307.327515,251.807953 307.322021,259.064117 307.391846,266.319305 
	C307.453827,272.763641 307.657043,279.206482 307.731689,285.650787 
	C307.806641,292.125916 307.815247,298.602020 307.824677,305.077728 
	C307.834778,311.989929 307.798889,318.902191 307.807770,325.814392 
	C307.813965,330.640717 308.042114,335.474243 307.848419,340.291565 
	C307.563538,347.375946 306.990692,354.448700 306.258514,361.766388 
	C302.312347,352.724945 298.648224,343.443542 294.520294,333.709473 
	C292.043793,328.539551 290.031067,323.822296 288.025299,318.704865 
	C286.063843,312.534607 284.095428,306.764526 282.513275,300.892639 
	C283.266327,299.272156 283.951324,297.753998 283.953430,296.234863 
	C284.005981,258.518738 283.986389,220.802505 283.979584,183.086304 
	C291.667725,183.066360 299.355865,183.046402 307.509583,183.051788 
z"/>
<path fill="#E188C6" opacity="1.000000" stroke="none" 
	d="
M288.018341,319.105042 
	C290.031067,323.822296 292.043793,328.539551 294.185669,333.625671 
	C293.709808,334.219543 293.104767,334.444550 292.189636,334.217407 
	C291.954010,330.365936 290.752441,328.063324 286.652191,327.816895 
	C285.554749,325.443268 284.738434,323.263245 284.253479,321.034363 
	C285.729309,320.358734 286.873840,319.731903 288.018341,319.105042 
z"/>
<path fill="#FCF3F6" opacity="1.000000" stroke="none" 
	d="
M286.933350,328.010468 
	C290.752441,328.063324 291.954010,330.365936 291.876831,334.111267 
	C291.504761,335.375519 291.135315,336.293762 290.707153,337.578461 
	C289.875702,338.021454 289.103058,338.097961 288.058105,337.823730 
	C287.501678,334.318787 287.217499,331.164642 286.933350,328.010468 
z"/>
<path fill="#EC6808" opacity="1.000000" stroke="none" 
	d="
M352.497070,459.303040 
	C351.823730,457.317566 351.053467,455.061249 351.051758,452.804321 
	C350.990082,371.191895 350.997620,289.579468 351.018860,207.967010 
	C351.019257,206.494781 351.302124,205.022614 352.031616,203.484421 
	C355.080688,208.281921 357.551300,213.145416 360.021912,218.008911 
	C360.021912,218.008911 360.001038,218.002411 360.002197,217.989990 
	C362.627472,224.895721 365.189056,231.838440 367.892487,238.725449 
	C370.847229,246.252686 373.933228,253.728394 376.702515,261.885376 
	C376.296082,263.351807 376.021027,264.159363 376.020660,264.967041 
	C375.999268,309.627289 375.990692,354.287537 376.048035,398.947723 
	C376.049805,400.319733 376.760742,401.690857 377.141052,403.062378 
	C369.013550,421.718872 360.886047,440.375397 352.497070,459.303040 
z"/>
<path fill="#F07505" opacity="1.000000" stroke="none" 
	d="
M377.403900,402.828400 
	C376.760742,401.690857 376.049805,400.319733 376.048035,398.947723 
	C375.990692,354.287537 375.999268,309.627289 376.020660,264.967041 
	C376.021027,264.159363 376.296082,263.351807 376.750854,262.250427 
	C381.332123,271.371704 385.602356,280.788116 389.882690,290.199951 
	C390.423248,291.388611 391.016754,292.553131 392.002502,294.249054 
	C396.944244,304.686066 401.469177,314.602844 405.994110,324.519653 
	C405.994110,324.519653 405.917328,324.690186 406.036407,325.065857 
	C406.388123,326.132568 406.620758,326.823547 406.853394,327.514557 
	C407.525879,329.148926 408.198364,330.783295 408.904846,332.797241 
	C408.462433,333.278931 407.667908,333.242889 407.554993,333.502899 
	C397.558472,356.518738 387.614410,379.557373 377.403900,402.828400 
z"/>
<path fill="#EC9FCD" opacity="1.000000" stroke="none" 
	d="
M406.034607,324.052399 
	C401.469177,314.602844 396.944244,304.686066 392.316406,294.438690 
	C394.184570,296.670044 396.496185,299.042572 398.050446,301.836426 
	C400.666199,306.538391 403.009216,311.422974 405.041534,316.404297 
	C405.927917,318.576843 405.762756,321.178406 406.034607,324.052399 
z"/>
<path fill="#EC9FCD" opacity="1.000000" stroke="none" 
	d="
M406.774963,327.241638 
	C406.620758,326.823547 406.388123,326.132568 406.084595,325.145996 
	C406.241302,325.556519 406.468933,326.262634 406.774963,327.241638 
z"/>
<path fill="#BF41AE" opacity="1.000000" stroke="none" 
	d="
M239.282593,469.793152 
	C239.542252,466.268524 240.066086,462.516052 240.598373,458.764740 
	C241.060608,455.507202 241.937225,452.251465 241.940582,448.994202 
	C242.017593,374.101562 241.991699,299.208801 242.044250,224.316086 
	C242.045670,222.286041 242.703949,220.256470 243.535690,218.496078 
	C244.233231,219.535355 244.388016,220.329880 244.678375,221.071304 
	C248.229004,230.137573 251.799515,239.196045 255.182953,248.689850 
	C254.667343,251.390823 254.044937,253.658157 254.042450,255.926163 
	C253.987076,306.509888 253.971832,357.093658 254.043137,407.677338 
	C254.050354,412.790527 254.658112,417.902863 254.987183,423.015594 
	C254.680374,423.472198 254.373581,423.928802 253.790100,424.877289 
	C254.009705,426.246613 254.505997,427.124084 255.002258,428.001526 
	C254.842010,428.864166 254.681747,429.726837 253.958557,430.669739 
	C252.651062,430.936523 251.906494,431.123016 251.161926,431.309509 
	C251.779129,431.875183 252.396332,432.440826 253.013550,433.006470 
	C249.171707,443.679688 245.340637,454.356842 241.476074,465.021820 
	C240.916428,466.566284 240.196304,468.052612 239.282593,469.793152 
z"/>
<path fill="#B936AB" opacity="1.000000" stroke="none" 
	d="
M255.333466,422.964386 
	C254.658112,417.902863 254.050354,412.790527 254.043137,407.677338 
	C253.971832,357.093658 253.987076,306.509888 254.042450,255.926163 
	C254.044937,253.658157 254.667343,251.390823 255.399048,249.018295 
	C259.941284,259.768799 264.085510,270.624176 268.063934,281.891968 
	C267.329803,289.252930 266.462219,296.193634 266.280884,303.152283 
	C266.113770,309.565521 266.915100,315.999512 266.872406,322.421600 
	C266.815399,331.002960 266.212097,339.579865 266.105225,348.161957 
	C265.975159,358.602448 265.977356,369.049683 266.226105,379.486755 
	C266.302032,382.671783 267.380188,385.832947 267.956818,389.383972 
	C267.615295,391.508575 267.316345,393.254242 267.017395,394.999878 
	C267.017365,394.999878 267.002655,395.005219 266.781372,395.114197 
	C266.282166,395.422119 266.090637,395.684174 265.768341,396.116211 
	C265.281128,396.422943 265.099030,396.684113 264.997681,397.393066 
	C263.999878,401.189758 263.009247,404.600037 262.018646,408.010284 
	C262.018646,408.010284 262.002441,408.000000 261.719482,408.212524 
	C259.963196,412.291229 258.489899,416.157440 257.016602,420.023651 
	C256.570984,420.986847 256.125366,421.950012 255.333466,422.964386 
z"/>
<path fill="#B42BA7" opacity="1.000000" stroke="none" 
	d="
M267.999359,389.005035 
	C267.380188,385.832947 266.302032,382.671783 266.226105,379.486755 
	C265.977356,369.049683 265.975159,358.602448 266.105225,348.161957 
	C266.212097,339.579865 266.815399,331.002960 266.872406,322.421600 
	C266.915100,315.999512 266.113770,309.565521 266.280884,303.152283 
	C266.462219,296.193634 267.329803,289.252930 268.297913,282.208557 
	C273.772491,295.102905 278.847321,308.093048 283.922150,321.083191 
	C284.738434,323.263245 285.554749,325.443268 286.652191,327.816895 
	C287.217499,331.164642 287.501678,334.318787 287.683014,337.933411 
	C285.087433,344.370392 282.594666,350.346863 280.052551,356.690765 
	C279.979492,357.484741 279.955750,357.911346 279.615356,358.844177 
	C277.198303,365.220734 275.097992,371.091034 272.997620,376.961334 
	C272.981201,377.131714 272.964783,377.302124 272.663208,377.950134 
	C270.918457,381.953491 269.458893,385.479279 267.999359,389.005035 
z"/>
<path fill="#BA39AC" opacity="1.000000" stroke="none" 
	d="
M273.344849,376.922119 
	C275.097992,371.091034 277.198303,365.220734 279.603821,359.165039 
	C280.248413,359.501984 281.002502,360.203949 280.865601,360.519836 
	C278.497742,365.983917 279.237061,372.825165 273.344849,376.922119 
z"/>
<path fill="#BA39AC" opacity="1.000000" stroke="none" 
	d="
M267.956818,389.383972 
	C269.458893,385.479279 270.918457,381.953491 272.645630,378.206268 
	C272.837585,380.201996 273.080963,382.492493 272.593109,384.614929 
	C272.140289,386.584808 270.906769,388.375244 269.762634,390.790833 
	C269.347382,391.906219 269.186462,392.475464 269.025574,393.044678 
	C268.532349,393.619141 268.039124,394.193604 267.281616,394.883972 
	C267.316345,393.254242 267.615295,391.508575 267.956818,389.383972 
z"/>
<path fill="#BF41AE" opacity="1.000000" stroke="none" 
	d="
M265.985535,396.009399 
	C266.090637,395.684174 266.282166,395.422119 266.785034,395.121704 
	C267.009979,395.020172 267.016663,395.491760 267.009888,396.073242 
	C267.005280,397.115234 267.007477,397.575745 267.009674,398.036255 
	C265.578888,401.322754 264.148102,404.609253 262.367981,407.953003 
	C263.009247,404.600037 263.999878,401.189758 265.213745,397.284149 
	C265.708313,396.591278 265.891174,396.331482 265.985535,396.009399 
z"/>
<path fill="#BF41AE" opacity="1.000000" stroke="none" 
	d="
M257.367981,419.958923 
	C258.489899,416.157440 259.963196,412.291229 261.723511,408.219452 
	C260.580139,411.973969 259.149780,415.934113 257.367981,419.958923 
z"/>
<path fill="#B936AB" opacity="1.000000" stroke="none" 
	d="
M253.255478,432.835754 
	C252.396332,432.440826 251.779129,431.875183 251.161926,431.309509 
	C251.906494,431.123016 252.651062,430.936523 253.695312,430.874390 
	C253.829147,431.554199 253.663284,432.109650 253.255478,432.835754 
z"/>
<path fill="#B936AB" opacity="1.000000" stroke="none" 
	d="
M255.002975,427.662109 
	C254.505997,427.124084 254.009705,426.246613 253.773178,425.166687 
	C254.356522,425.750366 254.680099,426.536530 255.002975,427.662109 
z"/>
<path fill="#B936AB" opacity="1.000000" stroke="none" 
	d="
M267.237671,397.882751 
	C267.007477,397.575745 267.005280,397.115234 267.009216,396.309082 
	C267.165466,396.552032 267.315582,397.140625 267.237671,397.882751 
z"/>
<path fill="#B936AB" opacity="1.000000" stroke="none" 
	d="
M269.268921,392.867157 
	C269.186462,392.475464 269.347382,391.906219 269.757507,391.165039 
	C269.841919,391.558624 269.677063,392.124115 269.268921,392.867157 
z"/>
<path fill="#FCF3F6" opacity="1.000000" stroke="none" 
	d="
M284.253479,321.034363 
	C278.847321,308.093048 273.772491,295.102905 268.463684,281.796143 
	C264.085510,270.624176 259.941284,259.768799 255.580978,248.584961 
	C251.799515,239.196045 248.229004,230.137573 244.678375,221.071304 
	C244.388016,220.329880 244.233231,219.535355 243.917603,218.389542 
	C240.444214,209.456650 237.068649,200.899689 233.401550,192.148071 
	C233.050629,190.525208 232.991241,189.097000 232.931885,187.359314 
	C234.588089,186.019516 236.244263,184.989182 238.335358,184.365372 
	C246.437515,205.706467 254.015228,226.674393 261.799286,247.565445 
	C268.452301,265.420929 275.342010,283.188202 282.127014,300.994476 
	C284.095428,306.764526 286.063843,312.534607 288.025299,318.704895 
	C286.873840,319.731903 285.729309,320.358734 284.253479,321.034363 
z"/>
<path fill="#E13C18" opacity="1.000000" stroke="none" 
	d="
M282.513245,300.892639 
	C275.342010,283.188202 268.452301,265.420929 261.799286,247.565445 
	C254.015228,226.674393 246.437515,205.706467 238.724869,184.300964 
	C238.482544,183.595734 238.508438,183.389343 238.918427,183.139572 
	C253.735733,183.057480 268.391754,183.046753 283.513672,183.061157 
	C283.986389,220.802505 284.005981,258.518738 283.953430,296.234863 
	C283.951324,297.753998 283.266327,299.272156 282.513245,300.892639 
z"/>
<path fill="#F07C38" opacity="1.000000" stroke="none" 
	d="
M360.031952,217.606873 
	C357.551300,213.145416 355.080688,208.281921 352.342407,203.200195 
	C350.046844,197.543884 348.018921,192.105804 345.990356,186.265259 
	C347.335480,188.072388 348.973175,190.158005 349.974213,192.514099 
	C353.449463,200.693634 356.703674,208.967087 360.031952,217.606873 
z"/>
<path fill="#E48DC8" opacity="1.000000" stroke="none" 
	d="
M147.458725,478.992432 
	C147.157059,478.522980 147.310822,477.656982 147.492767,477.651031 
	C154.208603,477.430908 152.996414,472.538239 152.997375,468.380951 
	C153.002823,444.935699 153.033676,421.490295 152.933899,398.045471 
	C152.926208,396.236603 151.979507,394.431702 151.234589,392.313110 
	C151.904587,389.548065 152.809250,387.094910 153.852692,384.315979 
	C157.231873,375.881653 160.472290,367.773041 163.860229,359.336731 
	C165.004196,361.055573 166.859055,363.097839 166.869385,365.149384 
	C167.047195,400.435547 167.054733,435.723145 166.872147,471.009247 
	C166.859619,473.429443 165.051575,475.840302 164.032227,478.622864 
	C158.633041,478.992432 153.280167,478.994659 147.458725,478.992432 
z"/>
<path fill="#DC7DC3" opacity="1.000000" stroke="none" 
	d="
M167.637390,348.999451 
	C167.501984,350.197968 167.010712,351.404053 166.261856,352.805176 
	C162.553467,350.429169 164.454102,349.569855 167.637390,348.999451 
z"/>
<path fill="#B42BA7" opacity="1.000000" stroke="none" 
	d="
M265.768341,396.116211 
	C265.891174,396.331482 265.708313,396.591278 265.220947,396.897705 
	C265.099030,396.684113 265.281128,396.422943 265.768341,396.116211 
z"/>
</svg>